<svg width="196" height="72" viewBox="0 0 196 72" fill="none" xmlns="http://www.w3.org/2000/svg">
<path d="M22.68 9.9179C22.68 9.9179 25.032 11.8219 26.404 13.1099C26.32 13.4179 25.984 13.5579 25.592 13.5579H0.616L0.392 12.7739H20.608L22.68 9.9179ZM10.164 8.6579C18.676 8.3499 15.288 15.0139 11.704 12.5779C11.564 11.1779 10.808 9.6939 9.996 8.7979L10.164 8.6579ZM19.432 22.5739L21.672 20.5859L25.116 23.8619C24.864 24.1139 24.584 24.1979 23.94 24.2259C20.944 25.0659 15.988 25.7939 12.712 26.1019L12.572 25.9059C14.896 25.0659 18.144 23.6099 19.768 22.5739H19.432ZM16.184 25.0379C16.128 25.4579 15.848 25.6819 15.288 25.7659V30.8899C15.288 33.6059 14.588 35.0059 9.912 35.3699C9.8 34.1099 9.632 33.2419 9.072 32.6259C8.54 32.0659 7.924 31.6459 6.188 31.3379V31.0019C6.188 31.0019 9.828 31.2259 10.472 31.2259C10.836 31.2259 10.976 31.1139 10.976 30.7779V24.6459L16.184 25.0379ZM17.164 15.5179L18.928 13.5579L22.708 16.3579C22.54 16.5819 22.204 16.8339 21.616 16.9739V20.6139C21.588 20.8099 19.46 21.4259 18.172 21.4259H17.444V15.5179H17.164ZM9.072 20.8099C9.072 21.1459 7.224 22.0139 5.572 22.0139H5.012V13.9219L9.296 15.5179H18.984V16.3019H9.072V20.8099ZM19.376 19.4939V20.2779H7.28V19.4939H19.376ZM21.28 22.5739V23.3579H2.744L2.492 22.5739H21.28ZM22.96 24.8699C22.96 24.8699 25.312 26.7179 26.712 27.9499C26.656 28.2579 26.32 28.3979 25.9 28.3979H0.224L0 27.6139H20.888L22.96 24.8699Z" fill="#BF9D7D"/>
<path d="M22.68 9.9179C22.68 9.9179 25.032 11.8219 26.404 13.1099C26.32 13.4179 25.984 13.5579 25.592 13.5579H0.616L0.392 12.7739H20.608L22.68 9.9179ZM10.164 8.6579C18.676 8.3499 15.288 15.0139 11.704 12.5779C11.564 11.1779 10.808 9.6939 9.996 8.7979L10.164 8.6579ZM19.432 22.5739L21.672 20.5859L25.116 23.8619C24.864 24.1139 24.584 24.1979 23.94 24.2259C20.944 25.0659 15.988 25.7939 12.712 26.1019L12.572 25.9059C14.896 25.0659 18.144 23.6099 19.768 22.5739H19.432ZM16.184 25.0379C16.128 25.4579 15.848 25.6819 15.288 25.7659V30.8899C15.288 33.6059 14.588 35.0059 9.912 35.3699C9.8 34.1099 9.632 33.2419 9.072 32.6259C8.54 32.0659 7.924 31.6459 6.188 31.3379V31.0019C6.188 31.0019 9.828 31.2259 10.472 31.2259C10.836 31.2259 10.976 31.1139 10.976 30.7779V24.6459L16.184 25.0379ZM17.164 15.5179L18.928 13.5579L22.708 16.3579C22.54 16.5819 22.204 16.8339 21.616 16.9739V20.6139C21.588 20.8099 19.46 21.4259 18.172 21.4259H17.444V15.5179H17.164ZM9.072 20.8099C9.072 21.1459 7.224 22.0139 5.572 22.0139H5.012V13.9219L9.296 15.5179H18.984V16.3019H9.072V20.8099ZM19.376 19.4939V20.2779H7.28V19.4939H19.376ZM21.28 22.5739V23.3579H2.744L2.492 22.5739H21.28ZM22.96 24.8699C22.96 24.8699 25.312 26.7179 26.712 27.9499C26.656 28.2579 26.32 28.3979 25.9 28.3979H0.224L0 27.6139H20.888L22.96 24.8699Z" fill="black" fill-opacity="0.2"/>
<path d="M82.964 14.7059C82.768 15.0139 82.208 15.2379 81.312 14.8179L82.18 14.6779C80.752 16.7219 77.588 19.8859 75.096 21.4259L75.068 21.0899H76.524C76.412 22.7419 75.908 23.6659 75.264 23.9459L73.836 20.6979C73.836 20.6979 74.424 20.5299 74.676 20.3619C76.328 18.9339 78.596 14.7339 79.268 12.4659L82.964 14.7059ZM81.396 10.3659C81.256 10.7019 80.752 10.9819 79.8 10.6459L80.724 10.5059C79.408 12.1299 76.972 14.3419 75.096 15.3219V15.0139H76.608C76.496 16.6939 75.992 17.6179 75.348 17.8979L73.892 14.5939C73.892 14.5939 74.368 14.4819 74.62 14.3139C75.628 13.3619 76.916 10.1979 77.224 8.5739L81.396 10.3659ZM65.38 14.7059C65.184 15.0419 64.624 15.2379 63.728 14.8459L64.596 14.7059C63.112 16.7499 59.808 19.9139 57.232 21.4539L57.204 21.1179H58.632C58.52 22.7699 58.016 23.6939 57.372 23.9739L55.944 20.7259C55.944 20.7259 56.56 20.5579 56.812 20.3899C58.548 18.9619 60.984 14.7619 61.712 12.4659L65.38 14.7059ZM63.532 10.3939C63.392 10.7299 62.888 11.0099 61.908 10.6739L62.832 10.5339C61.544 12.1579 59.136 14.3419 57.316 15.3779L57.288 15.0419H58.772C58.66 16.6939 58.156 17.5899 57.54 17.8979L56.112 14.6499C56.112 14.6499 56.588 14.5099 56.84 14.3419C57.848 13.3899 59.108 10.2539 59.416 8.6299L63.532 10.3939ZM67.9 29.4059C67.676 29.7419 67.312 29.8539 66.584 29.7419C63.616 32.2619 59.108 33.5499 55.804 33.9139L55.692 33.6339C58.296 32.1779 61.348 29.4339 63.42 26.4099L67.9 29.4059ZM72.352 28.0059C84.252 26.4939 83.552 35.3979 79.044 33.7179C77.56 31.9259 74.9 29.6299 72.24 28.2579L72.352 28.0059ZM74.564 20.6139C75.628 20.5859 78.12 20.4459 80.556 20.2499L80.584 20.5859C79.632 21.1739 77.504 22.4059 75.376 23.4979L74.564 20.6139ZM74.368 14.7059C75.432 14.6779 77.868 14.5379 80.192 14.3699L80.22 14.7059C79.38 15.2939 77.392 16.4979 75.376 17.5899L74.368 14.7059ZM79.492 17.7299C85.008 20.7259 81.928 25.0099 79.856 22.7139C79.968 21.0899 79.604 19.1859 79.156 17.8419L79.492 17.7299ZM56.616 20.6979C57.764 20.6699 60.48 20.5019 63.168 20.3059L63.196 20.6419C62.104 21.2579 59.808 22.4899 57.428 23.5819L56.616 20.6979ZM56.616 14.7339C57.68 14.7059 60.116 14.5659 62.44 14.3979L62.468 14.7339C61.628 15.3219 59.64 16.5259 57.624 17.6179L56.616 14.7339ZM72.688 23.5259C72.632 23.8899 72.436 24.1979 71.652 24.3099V34.4179C71.652 34.6979 69.776 35.3699 68.068 35.3699H67.34V23.0779L72.688 23.5259ZM78.792 23.0499C78.792 23.0499 81.144 24.8139 82.572 26.0179C82.488 26.3259 82.18 26.4659 81.76 26.4659H56.336L56.112 25.6819H76.72L78.792 23.0499ZM61.572 17.7859C66.948 20.6979 63.952 25.0099 61.936 22.7699C62.16 21.1459 61.768 19.2139 61.236 17.8979L61.572 17.7859ZM72.044 9.0779C71.96 9.5539 71.624 9.8059 71.008 9.8619C70.392 10.7299 69.272 11.9899 68.6 12.8019H67.844C67.9 11.7099 67.9 9.8339 67.872 8.5739L72.044 9.0779ZM70.028 12.3819L71.456 10.8699L74.368 13.0819C74.228 13.2499 73.948 13.4179 73.528 13.5299V21.9019C73.5 22.0979 71.904 22.7419 70.812 22.7419H70.252V12.3819H70.028ZM68.292 22.2939C68.292 22.6019 66.948 23.2739 65.632 23.2739H65.184V11.0939L68.404 12.3819H72.184V13.1659H68.292V22.2939ZM71.932 20.6139V21.3979H66.528V20.6139H71.932ZM71.932 16.4419V17.2259H66.528V16.4419H71.932Z" fill="#BF9D7D"/>
<path d="M82.964 14.7059C82.768 15.0139 82.208 15.2379 81.312 14.8179L82.18 14.6779C80.752 16.7219 77.588 19.8859 75.096 21.4259L75.068 21.0899H76.524C76.412 22.7419 75.908 23.6659 75.264 23.9459L73.836 20.6979C73.836 20.6979 74.424 20.5299 74.676 20.3619C76.328 18.9339 78.596 14.7339 79.268 12.4659L82.964 14.7059ZM81.396 10.3659C81.256 10.7019 80.752 10.9819 79.8 10.6459L80.724 10.5059C79.408 12.1299 76.972 14.3419 75.096 15.3219V15.0139H76.608C76.496 16.6939 75.992 17.6179 75.348 17.8979L73.892 14.5939C73.892 14.5939 74.368 14.4819 74.62 14.3139C75.628 13.3619 76.916 10.1979 77.224 8.5739L81.396 10.3659ZM65.38 14.7059C65.184 15.0419 64.624 15.2379 63.728 14.8459L64.596 14.7059C63.112 16.7499 59.808 19.9139 57.232 21.4539L57.204 21.1179H58.632C58.52 22.7699 58.016 23.6939 57.372 23.9739L55.944 20.7259C55.944 20.7259 56.56 20.5579 56.812 20.3899C58.548 18.9619 60.984 14.7619 61.712 12.4659L65.38 14.7059ZM63.532 10.3939C63.392 10.7299 62.888 11.0099 61.908 10.6739L62.832 10.5339C61.544 12.1579 59.136 14.3419 57.316 15.3779L57.288 15.0419H58.772C58.66 16.6939 58.156 17.5899 57.54 17.8979L56.112 14.6499C56.112 14.6499 56.588 14.5099 56.84 14.3419C57.848 13.3899 59.108 10.2539 59.416 8.6299L63.532 10.3939ZM67.9 29.4059C67.676 29.7419 67.312 29.8539 66.584 29.7419C63.616 32.2619 59.108 33.5499 55.804 33.9139L55.692 33.6339C58.296 32.1779 61.348 29.4339 63.42 26.4099L67.9 29.4059ZM72.352 28.0059C84.252 26.4939 83.552 35.3979 79.044 33.7179C77.56 31.9259 74.9 29.6299 72.24 28.2579L72.352 28.0059ZM74.564 20.6139C75.628 20.5859 78.12 20.4459 80.556 20.2499L80.584 20.5859C79.632 21.1739 77.504 22.4059 75.376 23.4979L74.564 20.6139ZM74.368 14.7059C75.432 14.6779 77.868 14.5379 80.192 14.3699L80.22 14.7059C79.38 15.2939 77.392 16.4979 75.376 17.5899L74.368 14.7059ZM79.492 17.7299C85.008 20.7259 81.928 25.0099 79.856 22.7139C79.968 21.0899 79.604 19.1859 79.156 17.8419L79.492 17.7299ZM56.616 20.6979C57.764 20.6699 60.48 20.5019 63.168 20.3059L63.196 20.6419C62.104 21.2579 59.808 22.4899 57.428 23.5819L56.616 20.6979ZM56.616 14.7339C57.68 14.7059 60.116 14.5659 62.44 14.3979L62.468 14.7339C61.628 15.3219 59.64 16.5259 57.624 17.6179L56.616 14.7339ZM72.688 23.5259C72.632 23.8899 72.436 24.1979 71.652 24.3099V34.4179C71.652 34.6979 69.776 35.3699 68.068 35.3699H67.34V23.0779L72.688 23.5259ZM78.792 23.0499C78.792 23.0499 81.144 24.8139 82.572 26.0179C82.488 26.3259 82.18 26.4659 81.76 26.4659H56.336L56.112 25.6819H76.72L78.792 23.0499ZM61.572 17.7859C66.948 20.6979 63.952 25.0099 61.936 22.7699C62.16 21.1459 61.768 19.2139 61.236 17.8979L61.572 17.7859ZM72.044 9.0779C71.96 9.5539 71.624 9.8059 71.008 9.8619C70.392 10.7299 69.272 11.9899 68.6 12.8019H67.844C67.9 11.7099 67.9 9.8339 67.872 8.5739L72.044 9.0779ZM70.028 12.3819L71.456 10.8699L74.368 13.0819C74.228 13.2499 73.948 13.4179 73.528 13.5299V21.9019C73.5 22.0979 71.904 22.7419 70.812 22.7419H70.252V12.3819H70.028ZM68.292 22.2939C68.292 22.6019 66.948 23.2739 65.632 23.2739H65.184V11.0939L68.404 12.3819H72.184V13.1659H68.292V22.2939ZM71.932 20.6139V21.3979H66.528V20.6139H71.932ZM71.932 16.4419V17.2259H66.528V16.4419H71.932Z" fill="black" fill-opacity="0.2"/>
<path d="M128.268 16.4699H124.768V11.2899H128.268V16.4699ZM132.804 11.2899V16.4699H129.36V11.2899H132.804ZM130.368 26.0179C130.368 26.0179 132.076 27.4179 133.084 28.3979C133 28.7059 132.72 28.8459 132.328 28.8459H124.992L124.768 28.0619H128.884L130.368 26.0179ZM113.904 26.6339C114.352 26.6339 114.464 26.6339 114.772 26.0459C115.388 24.9259 115.388 24.9259 120.4 12.6619L120.82 12.7459C119.868 16.4139 118.244 23.1059 117.936 24.8139C117.712 25.8499 117.544 26.9419 117.544 27.6979C117.628 29.3499 118.916 30.2179 118.86 32.8499C118.804 34.3619 117.712 35.3979 116.144 35.3979C115.444 35.3979 114.604 35.0619 114.324 33.9419C114.912 30.9739 114.8 28.0899 114.128 27.6139C113.736 27.3339 113.232 27.1939 112.644 27.1379V26.6339C112.644 26.6339 113.596 26.6339 113.904 26.6339ZM112.14 15.5739C120.428 16.0779 117.432 22.4059 114.072 20.1379C113.764 18.5419 112.812 16.8339 111.944 15.7139L112.14 15.5739ZM114.436 9.1059C122.808 9.8899 119.7 16.1899 116.34 13.8659C116.032 12.2139 115.08 10.4499 114.212 9.2459L114.436 9.1059ZM120.764 14.5659L124.628 15.9939H133.252L135.072 13.9219L138.292 16.4979C138.096 16.7779 137.76 17.0019 137.116 17.1139V34.1939C137.116 34.3899 135.912 35.1739 134.036 35.1739H133.42V16.7779H124.292V34.4179C124.292 34.6699 123.2 35.3419 121.408 35.3419H120.764V14.5659ZM128.268 19.3539C128.268 21.4819 127.876 24.4779 124.236 26.2419L123.984 25.9339C125.412 23.9739 125.412 21.4539 125.412 19.3539V16.4139H128.268V19.3539ZM132.188 16.4139C132.188 16.7219 132.188 17.0579 132.188 17.2819V21.9299C132.188 22.2379 132.244 22.3499 132.552 22.3499H133.112C133.28 22.3499 133.504 22.3219 133.644 22.3219C133.784 22.3219 134.064 22.3219 134.176 22.2939C134.344 22.2939 134.596 22.2379 134.792 22.1819H135.044L135.156 22.2379C135.856 22.5179 136.08 22.8259 136.08 23.3579C136.08 24.4219 135.212 24.8419 132.72 24.8419H131.572C129.612 24.8419 129.388 24.2539 129.388 22.5739V16.4139H132.188ZM135.436 31.8699V32.6539H122.92V31.8699H135.436ZM135.38 8.5459C135.38 8.5459 137.452 10.1419 138.712 11.2619C138.628 11.5699 138.32 11.7099 137.928 11.7099H120.092L119.868 10.9259H133.56L135.38 8.5459Z" fill="#BF9D7D"/>
<path d="M128.268 16.4699H124.768V11.2899H128.268V16.4699ZM132.804 11.2899V16.4699H129.36V11.2899H132.804ZM130.368 26.0179C130.368 26.0179 132.076 27.4179 133.084 28.3979C133 28.7059 132.72 28.8459 132.328 28.8459H124.992L124.768 28.0619H128.884L130.368 26.0179ZM113.904 26.6339C114.352 26.6339 114.464 26.6339 114.772 26.0459C115.388 24.9259 115.388 24.9259 120.4 12.6619L120.82 12.7459C119.868 16.4139 118.244 23.1059 117.936 24.8139C117.712 25.8499 117.544 26.9419 117.544 27.6979C117.628 29.3499 118.916 30.2179 118.86 32.8499C118.804 34.3619 117.712 35.3979 116.144 35.3979C115.444 35.3979 114.604 35.0619 114.324 33.9419C114.912 30.9739 114.8 28.0899 114.128 27.6139C113.736 27.3339 113.232 27.1939 112.644 27.1379V26.6339C112.644 26.6339 113.596 26.6339 113.904 26.6339ZM112.14 15.5739C120.428 16.0779 117.432 22.4059 114.072 20.1379C113.764 18.5419 112.812 16.8339 111.944 15.7139L112.14 15.5739ZM114.436 9.1059C122.808 9.8899 119.7 16.1899 116.34 13.8659C116.032 12.2139 115.08 10.4499 114.212 9.2459L114.436 9.1059ZM120.764 14.5659L124.628 15.9939H133.252L135.072 13.9219L138.292 16.4979C138.096 16.7779 137.76 17.0019 137.116 17.1139V34.1939C137.116 34.3899 135.912 35.1739 134.036 35.1739H133.42V16.7779H124.292V34.4179C124.292 34.6699 123.2 35.3419 121.408 35.3419H120.764V14.5659ZM128.268 19.3539C128.268 21.4819 127.876 24.4779 124.236 26.2419L123.984 25.9339C125.412 23.9739 125.412 21.4539 125.412 19.3539V16.4139H128.268V19.3539ZM132.188 16.4139C132.188 16.7219 132.188 17.0579 132.188 17.2819V21.9299C132.188 22.2379 132.244 22.3499 132.552 22.3499H133.112C133.28 22.3499 133.504 22.3219 133.644 22.3219C133.784 22.3219 134.064 22.3219 134.176 22.2939C134.344 22.2939 134.596 22.2379 134.792 22.1819H135.044L135.156 22.2379C135.856 22.5179 136.08 22.8259 136.08 23.3579C136.08 24.4219 135.212 24.8419 132.72 24.8419H131.572C129.612 24.8419 129.388 24.2539 129.388 22.5739V16.4139H132.188ZM135.436 31.8699V32.6539H122.92V31.8699H135.436ZM135.38 8.5459C135.38 8.5459 137.452 10.1419 138.712 11.2619C138.628 11.5699 138.32 11.7099 137.928 11.7099H120.092L119.868 10.9259H133.56L135.38 8.5459Z" fill="black" fill-opacity="0.2"/>
<path d="M179.256 8.7419C188.496 8.8819 185.248 16.0779 181.44 13.5859C181.132 11.8499 180.096 10.0579 179.088 8.8819L179.256 8.7419ZM170.464 12.1579L175.112 13.7259H174.524V20.8379C174.524 25.5139 174.188 31.6179 168.168 35.4539L167.944 35.2859C170.352 31.0579 170.464 25.6539 170.464 20.8379V12.1579ZM191.24 11.0659C191.24 11.0659 193.424 12.8579 194.684 14.0619C194.6 14.3699 194.292 14.5099 193.9 14.5099H172.368V13.7259H189.308L191.24 11.0659ZM190.064 16.6939C190.064 16.6939 192.388 18.5979 193.732 19.8579C193.648 20.1659 193.34 20.3059 192.92 20.3059H183.372V19.5219H188.02L190.064 16.6939ZM186.368 15.2379C186.312 15.6299 186.144 15.9099 185.36 16.0499V25.5979H181.3V14.8459L186.368 15.2379ZM189.14 31.7019V32.4859H176.904V31.7019H189.14ZM175.448 23.4699L179.508 24.9819H187.32L189.14 22.9379L192.5 25.4859C192.332 25.7379 192.052 25.9059 191.408 26.0459V34.3619C191.408 34.5299 190.204 35.1739 188.16 35.1739H187.46V25.7659H179.228V34.5579C179.228 34.7819 178.08 35.3979 176.148 35.3979H175.448V23.4699Z" fill="#BF9D7D"/>
<path d="M179.256 8.7419C188.496 8.8819 185.248 16.0779 181.44 13.5859C181.132 11.8499 180.096 10.0579 179.088 8.8819L179.256 8.7419ZM170.464 12.1579L175.112 13.7259H174.524V20.8379C174.524 25.5139 174.188 31.6179 168.168 35.4539L167.944 35.2859C170.352 31.0579 170.464 25.6539 170.464 20.8379V12.1579ZM191.24 11.0659C191.24 11.0659 193.424 12.8579 194.684 14.0619C194.6 14.3699 194.292 14.5099 193.9 14.5099H172.368V13.7259H189.308L191.24 11.0659ZM190.064 16.6939C190.064 16.6939 192.388 18.5979 193.732 19.8579C193.648 20.1659 193.34 20.3059 192.92 20.3059H183.372V19.5219H188.02L190.064 16.6939ZM186.368 15.2379C186.312 15.6299 186.144 15.9099 185.36 16.0499V25.5979H181.3V14.8459L186.368 15.2379ZM189.14 31.7019V32.4859H176.904V31.7019H189.14ZM175.448 23.4699L179.508 24.9819H187.32L189.14 22.9379L192.5 25.4859C192.332 25.7379 192.052 25.9059 191.408 26.0459V34.3619C191.408 34.5299 190.204 35.1739 188.16 35.1739H187.46V25.7659H179.228V34.5579C179.228 34.7819 178.08 35.3979 176.148 35.3979H175.448V23.4699Z" fill="black" fill-opacity="0.2"/>
<path d="M0.311276 58.1494C0.103759 58.1494 0 58.0479 0 57.8448C0 57.7492 0.0345862 57.6238 0.103759 57.4684C0.18446 57.3012 0.253632 57.1518 0.311276 57.0204C0.657138 56.2677 1.11252 55.3776 1.67743 54.3502C2.25387 53.3227 2.93983 52.1638 3.73531 50.8735C3.42403 50.8735 3.2684 50.7779 3.2684 50.5867C3.2684 50.3836 3.37792 50.2821 3.59697 50.2821L4.11576 50.3C4.47315 49.7385 4.77866 49.2665 5.03229 48.8842C5.28592 48.5019 5.48768 48.2032 5.63755 47.9882C5.89118 47.6417 6.16211 47.2952 6.45033 46.9487C6.75007 46.5903 7.07864 46.2438 7.43603 45.9093C7.97788 45.7898 8.53126 45.7062 9.09617 45.6584C9.67261 45.5987 10.2548 45.5688 10.8428 45.5688C11.8804 45.5688 12.6067 45.6226 13.0217 45.7301C13.1716 45.7659 13.2696 45.8077 13.3157 45.8555C13.3733 45.9033 13.4022 45.969 13.4022 46.0527C13.4022 46.2558 13.3157 46.3573 13.1428 46.3573C13.0044 46.3573 12.7393 46.3275 12.3473 46.2677C11.9553 46.196 11.3558 46.1602 10.5488 46.1602C10.1568 46.1602 9.72449 46.1841 9.25181 46.2319C8.77913 46.2797 8.26034 46.3514 7.69543 46.4469C7.21122 46.8293 6.23705 48.1136 4.7729 50.3H9.00971C9.19417 50.3 9.2864 50.3956 9.2864 50.5867C9.2864 50.7779 9.19417 50.8735 9.00971 50.8735H4.40974C2.73807 53.5258 1.51026 55.7122 0.72631 57.4326C3.83907 56.7158 6.19093 56.3573 7.7819 56.3573C8.88865 56.3573 9.44203 56.6321 9.44203 57.1817C9.44203 57.3729 9.3498 57.4684 9.16534 57.4684C9.01547 57.4684 8.93477 57.4087 8.92324 57.2892C8.91171 57.1578 8.80795 57.0742 8.61197 57.0383C8.4275 56.9905 8.13352 56.9666 7.73002 56.9666C7.22275 56.9666 6.65208 57.0085 6.018 57.0921C5.39545 57.1638 4.72678 57.2594 4.012 57.3788C2.99747 57.5342 2.17317 57.7014 1.53909 57.8806C0.905006 58.0598 0.495736 58.1494 0.311276 58.1494Z" fill="#BF9D7D"/>
<path d="M0.311276 58.1494C0.103759 58.1494 0 58.0479 0 57.8448C0 57.7492 0.0345862 57.6238 0.103759 57.4684C0.18446 57.3012 0.253632 57.1518 0.311276 57.0204C0.657138 56.2677 1.11252 55.3776 1.67743 54.3502C2.25387 53.3227 2.93983 52.1638 3.73531 50.8735C3.42403 50.8735 3.2684 50.7779 3.2684 50.5867C3.2684 50.3836 3.37792 50.2821 3.59697 50.2821L4.11576 50.3C4.47315 49.7385 4.77866 49.2665 5.03229 48.8842C5.28592 48.5019 5.48768 48.2032 5.63755 47.9882C5.89118 47.6417 6.16211 47.2952 6.45033 46.9487C6.75007 46.5903 7.07864 46.2438 7.43603 45.9093C7.97788 45.7898 8.53126 45.7062 9.09617 45.6584C9.67261 45.5987 10.2548 45.5688 10.8428 45.5688C11.8804 45.5688 12.6067 45.6226 13.0217 45.7301C13.1716 45.7659 13.2696 45.8077 13.3157 45.8555C13.3733 45.9033 13.4022 45.969 13.4022 46.0527C13.4022 46.2558 13.3157 46.3573 13.1428 46.3573C13.0044 46.3573 12.7393 46.3275 12.3473 46.2677C11.9553 46.196 11.3558 46.1602 10.5488 46.1602C10.1568 46.1602 9.72449 46.1841 9.25181 46.2319C8.77913 46.2797 8.26034 46.3514 7.69543 46.4469C7.21122 46.8293 6.23705 48.1136 4.7729 50.3H9.00971C9.19417 50.3 9.2864 50.3956 9.2864 50.5867C9.2864 50.7779 9.19417 50.8735 9.00971 50.8735H4.40974C2.73807 53.5258 1.51026 55.7122 0.72631 57.4326C3.83907 56.7158 6.19093 56.3573 7.7819 56.3573C8.88865 56.3573 9.44203 56.6321 9.44203 57.1817C9.44203 57.3729 9.3498 57.4684 9.16534 57.4684C9.01547 57.4684 8.93477 57.4087 8.92324 57.2892C8.91171 57.1578 8.80795 57.0742 8.61197 57.0383C8.4275 56.9905 8.13352 56.9666 7.73002 56.9666C7.22275 56.9666 6.65208 57.0085 6.018 57.0921C5.39545 57.1638 4.72678 57.2594 4.012 57.3788C2.99747 57.5342 2.17317 57.7014 1.53909 57.8806C0.905006 58.0598 0.495736 58.1494 0.311276 58.1494Z" fill="black" fill-opacity="0.2"/>
<path d="M12.7342 57.9344C12.5497 57.9344 12.4575 57.8567 12.4575 57.7014C12.4575 57.6417 12.4806 57.57 12.5267 57.4864C12.5728 57.3908 12.6132 57.3131 12.6477 57.2534L14.2041 54.0097C14.8728 52.5999 15.2071 51.8173 15.2071 51.662C15.2071 51.4947 15.2878 51.4111 15.4492 51.4111C15.6683 51.4111 15.7778 51.5306 15.7778 51.7695C15.7778 51.8531 15.7259 52.0324 15.6222 52.3071C15.5184 52.5819 15.3858 52.8926 15.2244 53.239C14.9477 53.8603 14.7171 54.3382 14.5327 54.6727C14.8786 54.2546 15.2302 53.8603 15.5876 53.4899C15.945 53.1196 16.3081 52.7671 16.677 52.4326C17.7723 51.441 18.6139 50.9451 19.2018 50.9451C19.6053 50.9451 19.8071 51.1423 19.8071 51.5365C19.8071 51.895 19.5131 52.7014 18.9251 53.9559C18.3372 55.2223 18.0432 56.0228 18.0432 56.3573C18.0432 56.5126 18.0951 56.5903 18.1988 56.5903C18.2334 56.5903 18.2853 56.5784 18.3545 56.5545C18.4352 56.5186 18.5159 56.5007 18.5966 56.5007C18.7926 56.5007 18.8906 56.5963 18.8906 56.7874C18.8906 57.0264 18.6427 57.1459 18.1469 57.1459C17.9164 57.1459 17.7492 57.0921 17.6454 56.9846C17.5417 56.8651 17.4898 56.7098 17.4898 56.5186C17.4898 55.9451 17.7723 55.073 18.3372 53.9021C18.9021 52.7432 19.1845 52.0443 19.1845 51.8054C19.1845 51.662 19.1327 51.5903 19.0289 51.5903C18.7753 51.5903 18.366 51.8113 17.8011 52.2534C17.1901 52.7313 16.579 53.2809 15.968 53.9021C15.357 54.5234 14.7748 55.2343 14.2214 56.0347L13.0109 57.7731C12.9417 57.8806 12.8495 57.9344 12.7342 57.9344Z" fill="#BF9D7D"/>
<path d="M12.7342 57.9344C12.5497 57.9344 12.4575 57.8567 12.4575 57.7014C12.4575 57.6417 12.4806 57.57 12.5267 57.4864C12.5728 57.3908 12.6132 57.3131 12.6477 57.2534L14.2041 54.0097C14.8728 52.5999 15.2071 51.8173 15.2071 51.662C15.2071 51.4947 15.2878 51.4111 15.4492 51.4111C15.6683 51.4111 15.7778 51.5306 15.7778 51.7695C15.7778 51.8531 15.7259 52.0324 15.6222 52.3071C15.5184 52.5819 15.3858 52.8926 15.2244 53.239C14.9477 53.8603 14.7171 54.3382 14.5327 54.6727C14.8786 54.2546 15.2302 53.8603 15.5876 53.4899C15.945 53.1196 16.3081 52.7671 16.677 52.4326C17.7723 51.441 18.6139 50.9451 19.2018 50.9451C19.6053 50.9451 19.8071 51.1423 19.8071 51.5365C19.8071 51.895 19.5131 52.7014 18.9251 53.9559C18.3372 55.2223 18.0432 56.0228 18.0432 56.3573C18.0432 56.5126 18.0951 56.5903 18.1988 56.5903C18.2334 56.5903 18.2853 56.5784 18.3545 56.5545C18.4352 56.5186 18.5159 56.5007 18.5966 56.5007C18.7926 56.5007 18.8906 56.5963 18.8906 56.7874C18.8906 57.0264 18.6427 57.1459 18.1469 57.1459C17.9164 57.1459 17.7492 57.0921 17.6454 56.9846C17.5417 56.8651 17.4898 56.7098 17.4898 56.5186C17.4898 55.9451 17.7723 55.073 18.3372 53.9021C18.9021 52.7432 19.1845 52.0443 19.1845 51.8054C19.1845 51.662 19.1327 51.5903 19.0289 51.5903C18.7753 51.5903 18.366 51.8113 17.8011 52.2534C17.1901 52.7313 16.579 53.2809 15.968 53.9021C15.357 54.5234 14.7748 55.2343 14.2214 56.0347L13.0109 57.7731C12.9417 57.8806 12.8495 57.9344 12.7342 57.9344Z" fill="black" fill-opacity="0.2"/>
<path d="M24.8473 50.4254C24.6514 50.4254 24.5534 50.3239 24.5534 50.1208C24.5534 50.061 24.5937 49.9535 24.6744 49.7982C24.7551 49.6309 24.8473 49.4637 24.9511 49.2964C25.0549 49.1291 25.1356 49.0156 25.1932 48.9559C25.3892 48.7289 25.5391 48.5855 25.6428 48.5258C25.7581 48.466 25.8619 48.4362 25.9541 48.4362C26.1962 48.4362 26.3173 48.5497 26.3173 48.7767C26.3173 48.8603 26.2654 48.9619 26.1616 49.0813C26.0694 49.1889 25.9599 49.2904 25.8331 49.386C25.6486 49.5055 25.5333 49.6011 25.4872 49.6727L25.1067 50.2283C25.0952 50.2761 25.0664 50.3239 25.0203 50.3717C24.9857 50.4075 24.928 50.4254 24.8473 50.4254ZM18.7429 63.4541C18.4316 63.4541 18.178 63.3406 17.982 63.1136C17.7745 62.8985 17.6246 62.6297 17.5324 62.3071C17.4286 61.9965 17.3767 61.6978 17.3767 61.4111C17.3767 61.0646 17.4113 60.748 17.4805 60.4613C17.5727 60.0431 17.7226 59.834 17.9301 59.834C18.1146 59.834 18.2068 59.9236 18.2068 60.1028C18.2068 60.1506 18.1837 60.2163 18.1376 60.3C18.0915 60.3836 18.0569 60.4553 18.0339 60.515C17.9647 60.7062 17.9301 60.9511 17.9301 61.2498C17.9301 61.6202 17.9993 61.9726 18.1376 62.3071C18.276 62.6536 18.495 62.8269 18.7948 62.8269C19.0253 62.8269 19.2559 62.7313 19.4865 62.5401C19.7171 62.349 19.9419 62.104 20.1609 61.8054C20.3684 61.5186 20.5644 61.214 20.7489 60.8914C20.9218 60.5688 21.0659 60.2701 21.1812 59.9953C21.3426 59.625 21.504 59.2247 21.6654 58.7946C21.8268 58.3645 21.9709 57.9523 22.0977 57.558C22.2361 57.1638 22.3283 56.8472 22.3744 56.6082C22.4667 56.1303 22.5589 55.6584 22.6511 55.1925C22.7549 54.7146 22.8586 54.2367 22.9624 53.7588C23.1584 52.9105 23.3544 52.3191 23.5504 51.9846C23.7464 51.65 23.925 51.4828 24.0865 51.4828C24.1672 51.4828 24.2594 51.5186 24.3631 51.5903C24.4784 51.662 24.5361 51.7456 24.5361 51.8412C24.5361 51.889 24.4208 52.116 24.1902 52.5222C24.0634 52.7492 23.9654 52.9284 23.8962 53.0598C23.8271 53.1913 23.7809 53.2809 23.7579 53.3287C23.7233 53.4123 23.6714 53.5915 23.6022 53.8663C23.5331 54.1411 23.4524 54.4696 23.3601 54.852C23.2794 55.2223 23.193 55.6046 23.1007 55.9989C23.0085 56.3932 22.9221 56.7576 22.8413 57.0921C22.7722 57.4147 22.7088 57.6656 22.6511 57.8448C22.4667 58.4661 22.2476 59.0754 21.994 59.6727C21.7404 60.2701 21.4694 60.8137 21.1812 61.3036C20.3396 62.7373 19.5268 63.4541 18.7429 63.4541Z" fill="#BF9D7D"/>
<path d="M24.8473 50.4254C24.6514 50.4254 24.5534 50.3239 24.5534 50.1208C24.5534 50.061 24.5937 49.9535 24.6744 49.7982C24.7551 49.6309 24.8473 49.4637 24.9511 49.2964C25.0549 49.1291 25.1356 49.0156 25.1932 48.9559C25.3892 48.7289 25.5391 48.5855 25.6428 48.5258C25.7581 48.466 25.8619 48.4362 25.9541 48.4362C26.1962 48.4362 26.3173 48.5497 26.3173 48.7767C26.3173 48.8603 26.2654 48.9619 26.1616 49.0813C26.0694 49.1889 25.9599 49.2904 25.8331 49.386C25.6486 49.5055 25.5333 49.6011 25.4872 49.6727L25.1067 50.2283C25.0952 50.2761 25.0664 50.3239 25.0203 50.3717C24.9857 50.4075 24.928 50.4254 24.8473 50.4254ZM18.7429 63.4541C18.4316 63.4541 18.178 63.3406 17.982 63.1136C17.7745 62.8985 17.6246 62.6297 17.5324 62.3071C17.4286 61.9965 17.3767 61.6978 17.3767 61.4111C17.3767 61.0646 17.4113 60.748 17.4805 60.4613C17.5727 60.0431 17.7226 59.834 17.9301 59.834C18.1146 59.834 18.2068 59.9236 18.2068 60.1028C18.2068 60.1506 18.1837 60.2163 18.1376 60.3C18.0915 60.3836 18.0569 60.4553 18.0339 60.515C17.9647 60.7062 17.9301 60.9511 17.9301 61.2498C17.9301 61.6202 17.9993 61.9726 18.1376 62.3071C18.276 62.6536 18.495 62.8269 18.7948 62.8269C19.0253 62.8269 19.2559 62.7313 19.4865 62.5401C19.7171 62.349 19.9419 62.104 20.1609 61.8054C20.3684 61.5186 20.5644 61.214 20.7489 60.8914C20.9218 60.5688 21.0659 60.2701 21.1812 59.9953C21.3426 59.625 21.504 59.2247 21.6654 58.7946C21.8268 58.3645 21.9709 57.9523 22.0977 57.558C22.2361 57.1638 22.3283 56.8472 22.3744 56.6082C22.4667 56.1303 22.5589 55.6584 22.6511 55.1925C22.7549 54.7146 22.8586 54.2367 22.9624 53.7588C23.1584 52.9105 23.3544 52.3191 23.5504 51.9846C23.7464 51.65 23.925 51.4828 24.0865 51.4828C24.1672 51.4828 24.2594 51.5186 24.3631 51.5903C24.4784 51.662 24.5361 51.7456 24.5361 51.8412C24.5361 51.889 24.4208 52.116 24.1902 52.5222C24.0634 52.7492 23.9654 52.9284 23.8962 53.0598C23.8271 53.1913 23.7809 53.2809 23.7579 53.3287C23.7233 53.4123 23.6714 53.5915 23.6022 53.8663C23.5331 54.1411 23.4524 54.4696 23.3601 54.852C23.2794 55.2223 23.193 55.6046 23.1007 55.9989C23.0085 56.3932 22.9221 56.7576 22.8413 57.0921C22.7722 57.4147 22.7088 57.6656 22.6511 57.8448C22.4667 58.4661 22.2476 59.0754 21.994 59.6727C21.7404 60.2701 21.4694 60.8137 21.1812 61.3036C20.3396 62.7373 19.5268 63.4541 18.7429 63.4541Z" fill="black" fill-opacity="0.2"/>
<path d="M28.1626 57.3968C27.2288 57.3968 26.7619 56.8531 26.7619 55.7659C26.7619 55.2641 26.8772 54.7385 27.1077 54.1889C27.3383 53.6393 27.6438 53.1315 28.0243 52.6656C28.4047 52.1877 28.8255 51.7994 29.2867 51.5007C29.7594 51.202 30.2378 51.0527 30.722 51.0527C31.1486 51.0527 31.4598 51.2199 31.6558 51.5545C31.8518 51.889 31.9498 52.2594 31.9498 52.6656C31.9498 53.2032 31.8461 53.7528 31.6385 54.3143C31.431 54.8639 31.1486 55.3717 30.7912 55.8376C30.4338 56.3036 30.0303 56.6799 29.5807 56.9666C29.131 57.2534 28.6584 57.3968 28.1626 57.3968ZM28.1453 56.8233C28.2145 56.8233 28.2549 56.8173 28.2664 56.8054C28.716 56.7456 29.131 56.5784 29.5115 56.3036C29.8919 56.0288 30.2205 55.6883 30.4972 55.2821C30.7854 54.8639 31.0045 54.4159 31.1543 53.938C31.3042 53.4601 31.3791 52.9882 31.3791 52.5222C31.3791 52.2474 31.3042 52.0324 31.1543 51.877C31.0045 51.7217 30.8142 51.6441 30.5837 51.6441C30.2493 51.6441 29.8919 51.7874 29.5115 52.0742C29.1426 52.3609 28.7909 52.7253 28.4566 53.1674C28.1338 53.6094 27.8686 54.0754 27.6611 54.5652C27.4536 55.0431 27.3498 55.4732 27.3498 55.8555C27.3498 56.5007 27.615 56.8233 28.1453 56.8233Z" fill="#BF9D7D"/>
<path d="M28.1626 57.3968C27.2288 57.3968 26.7619 56.8531 26.7619 55.7659C26.7619 55.2641 26.8772 54.7385 27.1077 54.1889C27.3383 53.6393 27.6438 53.1315 28.0243 52.6656C28.4047 52.1877 28.8255 51.7994 29.2867 51.5007C29.7594 51.202 30.2378 51.0527 30.722 51.0527C31.1486 51.0527 31.4598 51.2199 31.6558 51.5545C31.8518 51.889 31.9498 52.2594 31.9498 52.6656C31.9498 53.2032 31.8461 53.7528 31.6385 54.3143C31.431 54.8639 31.1486 55.3717 30.7912 55.8376C30.4338 56.3036 30.0303 56.6799 29.5807 56.9666C29.131 57.2534 28.6584 57.3968 28.1626 57.3968ZM28.1453 56.8233C28.2145 56.8233 28.2549 56.8173 28.2664 56.8054C28.716 56.7456 29.131 56.5784 29.5115 56.3036C29.8919 56.0288 30.2205 55.6883 30.4972 55.2821C30.7854 54.8639 31.0045 54.4159 31.1543 53.938C31.3042 53.4601 31.3791 52.9882 31.3791 52.5222C31.3791 52.2474 31.3042 52.0324 31.1543 51.877C31.0045 51.7217 30.8142 51.6441 30.5837 51.6441C30.2493 51.6441 29.8919 51.7874 29.5115 52.0742C29.1426 52.3609 28.7909 52.7253 28.4566 53.1674C28.1338 53.6094 27.8686 54.0754 27.6611 54.5652C27.4536 55.0431 27.3498 55.4732 27.3498 55.8555C27.3498 56.5007 27.615 56.8233 28.1453 56.8233Z" fill="black" fill-opacity="0.2"/>
<path d="M34.0078 63.4183C33.3046 63.4183 32.9529 62.9882 32.9529 62.1279C32.9529 61.3991 33.1028 60.6942 33.4026 60.0132C33.4487 59.8938 33.5236 59.834 33.6274 59.834C33.8349 59.834 33.9387 59.9296 33.9387 60.1208C33.9387 60.1686 33.9214 60.2283 33.8868 60.3C33.8637 60.3836 33.8349 60.4732 33.8003 60.5688C33.7196 60.7958 33.6562 61.0347 33.6101 61.2856C33.564 61.5365 33.5409 61.7994 33.5409 62.0742C33.5409 62.3848 33.5813 62.5939 33.662 62.7014C33.7427 62.8089 33.8464 62.8627 33.9732 62.8627C34.273 62.8627 34.6246 62.7193 35.0281 62.4326C35.4432 62.1459 35.8697 61.6919 36.3078 61.0706C36.6191 60.6285 36.9419 60.1028 37.2762 59.4935C37.6106 58.8842 37.9679 58.1853 38.3484 57.3968C38.8557 56.3573 39.3226 55.3 39.7491 54.2247C39.4609 54.607 39.1612 54.9774 38.8499 55.3358C38.5386 55.6942 38.2043 56.0288 37.8469 56.3394C36.89 57.1877 36.0945 57.6118 35.4604 57.6118C34.6996 57.6118 34.3191 57.1578 34.3191 56.2498C34.3191 55.9272 34.3767 55.5389 34.492 55.0849C34.6189 54.6309 34.7918 54.1112 35.0108 53.5258C35.0454 53.4302 35.0627 53.3525 35.0627 53.2928C35.0627 53.2211 35.08 53.1494 35.1146 53.0778C35.299 52.6596 35.6046 52.1936 36.0311 51.6799C36.1234 51.5724 36.2041 51.5186 36.2732 51.5186C36.4462 51.5186 36.5326 51.65 36.5326 51.9129C35.4143 53.6214 34.8552 55.067 34.8552 56.2498C34.8552 56.7516 35.0454 57.0025 35.4259 57.0025C35.8524 57.0025 36.4462 56.6978 37.2071 56.0885C37.7489 55.6584 38.2504 55.1745 38.7116 54.6369C39.1727 54.0873 39.5877 53.5198 39.9567 52.9344C40.2103 52.5401 40.412 52.1936 40.5619 51.895C40.7233 51.5843 40.8213 51.3752 40.8559 51.2677C40.9135 51.0885 40.9942 50.9989 41.098 50.9989C41.317 50.9989 41.4266 51.0945 41.4266 51.2856C41.4266 51.3812 41.3805 51.5545 41.2882 51.8054C41.2075 52.0443 41.1038 52.331 40.9769 52.6656C40.7925 53.1554 40.5273 53.8125 40.1815 54.6369C39.8356 55.4613 39.4033 56.441 38.8845 57.576C38.2389 58.9858 37.6048 60.1387 36.9822 61.0347C36.5211 61.7157 36.0138 62.2833 35.4604 62.7373C34.9186 63.1913 34.4344 63.4183 34.0078 63.4183Z" fill="#BF9D7D"/>
<path d="M34.0078 63.4183C33.3046 63.4183 32.9529 62.9882 32.9529 62.1279C32.9529 61.3991 33.1028 60.6942 33.4026 60.0132C33.4487 59.8938 33.5236 59.834 33.6274 59.834C33.8349 59.834 33.9387 59.9296 33.9387 60.1208C33.9387 60.1686 33.9214 60.2283 33.8868 60.3C33.8637 60.3836 33.8349 60.4732 33.8003 60.5688C33.7196 60.7958 33.6562 61.0347 33.6101 61.2856C33.564 61.5365 33.5409 61.7994 33.5409 62.0742C33.5409 62.3848 33.5813 62.5939 33.662 62.7014C33.7427 62.8089 33.8464 62.8627 33.9732 62.8627C34.273 62.8627 34.6246 62.7193 35.0281 62.4326C35.4432 62.1459 35.8697 61.6919 36.3078 61.0706C36.6191 60.6285 36.9419 60.1028 37.2762 59.4935C37.6106 58.8842 37.9679 58.1853 38.3484 57.3968C38.8557 56.3573 39.3226 55.3 39.7491 54.2247C39.4609 54.607 39.1612 54.9774 38.8499 55.3358C38.5386 55.6942 38.2043 56.0288 37.8469 56.3394C36.89 57.1877 36.0945 57.6118 35.4604 57.6118C34.6996 57.6118 34.3191 57.1578 34.3191 56.2498C34.3191 55.9272 34.3767 55.5389 34.492 55.0849C34.6189 54.6309 34.7918 54.1112 35.0108 53.5258C35.0454 53.4302 35.0627 53.3525 35.0627 53.2928C35.0627 53.2211 35.08 53.1494 35.1146 53.0778C35.299 52.6596 35.6046 52.1936 36.0311 51.6799C36.1234 51.5724 36.2041 51.5186 36.2732 51.5186C36.4462 51.5186 36.5326 51.65 36.5326 51.9129C35.4143 53.6214 34.8552 55.067 34.8552 56.2498C34.8552 56.7516 35.0454 57.0025 35.4259 57.0025C35.8524 57.0025 36.4462 56.6978 37.2071 56.0885C37.7489 55.6584 38.2504 55.1745 38.7116 54.6369C39.1727 54.0873 39.5877 53.5198 39.9567 52.9344C40.2103 52.5401 40.412 52.1936 40.5619 51.895C40.7233 51.5843 40.8213 51.3752 40.8559 51.2677C40.9135 51.0885 40.9942 50.9989 41.098 50.9989C41.317 50.9989 41.4266 51.0945 41.4266 51.2856C41.4266 51.3812 41.3805 51.5545 41.2882 51.8054C41.2075 52.0443 41.1038 52.331 40.9769 52.6656C40.7925 53.1554 40.5273 53.8125 40.1815 54.6369C39.8356 55.4613 39.4033 56.441 38.8845 57.576C38.2389 58.9858 37.6048 60.1387 36.9822 61.0347C36.5211 61.7157 36.0138 62.2833 35.4604 62.7373C34.9186 63.1913 34.4344 63.4183 34.0078 63.4183Z" fill="black" fill-opacity="0.2"/>
<path d="M42.653 58.0957C42.457 58.0957 42.359 58.0001 42.359 57.8089C42.359 57.797 42.4282 57.6477 42.5666 57.3609C42.7049 57.0742 42.9009 56.65 43.1545 56.0885L44.0365 54.1709C44.3939 53.3944 44.6475 52.7791 44.7974 52.3251C44.9588 51.8711 45.0395 51.5784 45.0395 51.4469C45.0395 51.2558 45.1317 51.1602 45.3162 51.1602C45.5006 51.1602 45.5929 51.2558 45.5929 51.4469C45.5929 51.6023 45.541 51.8472 45.4372 52.1817C45.345 52.5043 45.1894 52.9224 44.9703 53.4362L44.0884 55.515C46.4979 52.3609 48.3136 50.7839 49.5357 50.7839C49.7663 50.7839 49.945 50.8854 50.0718 51.0885C50.1986 51.2797 50.262 51.4947 50.262 51.7337C50.262 52.3071 49.8643 53.3048 49.0688 54.7265C49.6798 54.0813 50.2966 53.4362 50.9191 52.791C51.5532 52.1339 52.1873 51.4887 52.8214 50.8555C52.9828 50.7002 53.1154 50.6226 53.2191 50.6226C53.3575 50.6226 53.4727 50.6942 53.565 50.8376C53.6572 50.969 53.7033 51.1124 53.7033 51.2677C53.7033 51.3872 53.6514 51.5365 53.5477 51.7158C53.3978 51.9786 53.2595 52.2952 53.1326 52.6656C53.0058 53.024 52.8617 53.4302 52.7003 53.8842C52.5159 54.3979 52.3833 54.846 52.3026 55.2283C52.2219 55.6106 52.1815 55.9212 52.1815 56.1602C52.1815 56.4589 52.2507 56.6799 52.389 56.8233C52.5274 56.9547 52.6657 57.0204 52.8041 57.0204C53.0462 57.0204 53.3113 56.9547 53.5996 56.8233C53.8878 56.6919 54.1241 56.5604 54.3086 56.429C54.6775 56.1781 55.0637 55.8675 55.4672 55.4971C55.8707 55.1148 56.2569 54.7325 56.6259 54.3502C56.672 54.3024 56.7411 54.2785 56.8334 54.2785C57.0063 54.2785 57.0928 54.3502 57.0928 54.4935C57.0928 54.6249 57.0121 54.7743 56.8507 54.9416C56.3895 55.4195 55.9745 55.8316 55.6056 56.1781C55.2366 56.5126 54.885 56.7874 54.5507 57.0025C54.3316 57.1339 54.0665 57.2713 53.7552 57.4147C53.4439 57.558 53.1096 57.6297 52.7522 57.6297C52.4179 57.6297 52.1354 57.5222 51.9048 57.3071C51.6858 57.0921 51.5763 56.6321 51.5763 55.9272C51.5763 55.6524 51.6224 55.3298 51.7146 54.9595C51.8068 54.5772 51.9452 54.153 52.1296 53.6871L53.0462 51.429L50.5733 54.0097C50.285 54.3083 50.0487 54.5592 49.8643 54.7623C49.6798 54.9655 49.5299 55.1327 49.4146 55.2641C49.1956 55.5031 48.9996 55.7361 48.8267 55.9631C48.6653 56.1901 48.5269 56.3872 48.4116 56.5545C48.3309 56.6859 48.2387 56.7516 48.1349 56.7516C47.9389 56.7516 47.841 56.668 47.841 56.5007C47.841 56.1303 48.1638 55.2761 48.8094 53.938C49.455 52.5999 49.7778 51.7994 49.7778 51.5365C49.7778 51.4171 49.651 51.3573 49.3973 51.3573C48.3713 51.3573 46.544 53.0957 43.9154 56.5724C43.6964 56.895 43.3332 57.3788 42.826 58.024C42.7914 58.0718 42.7337 58.0957 42.653 58.0957Z" fill="#BF9D7D"/>
<path d="M42.653 58.0957C42.457 58.0957 42.359 58.0001 42.359 57.8089C42.359 57.797 42.4282 57.6477 42.5666 57.3609C42.7049 57.0742 42.9009 56.65 43.1545 56.0885L44.0365 54.1709C44.3939 53.3944 44.6475 52.7791 44.7974 52.3251C44.9588 51.8711 45.0395 51.5784 45.0395 51.4469C45.0395 51.2558 45.1317 51.1602 45.3162 51.1602C45.5006 51.1602 45.5929 51.2558 45.5929 51.4469C45.5929 51.6023 45.541 51.8472 45.4372 52.1817C45.345 52.5043 45.1894 52.9224 44.9703 53.4362L44.0884 55.515C46.4979 52.3609 48.3136 50.7839 49.5357 50.7839C49.7663 50.7839 49.945 50.8854 50.0718 51.0885C50.1986 51.2797 50.262 51.4947 50.262 51.7337C50.262 52.3071 49.8643 53.3048 49.0688 54.7265C49.6798 54.0813 50.2966 53.4362 50.9191 52.791C51.5532 52.1339 52.1873 51.4887 52.8214 50.8555C52.9828 50.7002 53.1154 50.6226 53.2191 50.6226C53.3575 50.6226 53.4727 50.6942 53.565 50.8376C53.6572 50.969 53.7033 51.1124 53.7033 51.2677C53.7033 51.3872 53.6514 51.5365 53.5477 51.7158C53.3978 51.9786 53.2595 52.2952 53.1326 52.6656C53.0058 53.024 52.8617 53.4302 52.7003 53.8842C52.5159 54.3979 52.3833 54.846 52.3026 55.2283C52.2219 55.6106 52.1815 55.9212 52.1815 56.1602C52.1815 56.4589 52.2507 56.6799 52.389 56.8233C52.5274 56.9547 52.6657 57.0204 52.8041 57.0204C53.0462 57.0204 53.3113 56.9547 53.5996 56.8233C53.8878 56.6919 54.1241 56.5604 54.3086 56.429C54.6775 56.1781 55.0637 55.8675 55.4672 55.4971C55.8707 55.1148 56.2569 54.7325 56.6259 54.3502C56.672 54.3024 56.7411 54.2785 56.8334 54.2785C57.0063 54.2785 57.0928 54.3502 57.0928 54.4935C57.0928 54.6249 57.0121 54.7743 56.8507 54.9416C56.3895 55.4195 55.9745 55.8316 55.6056 56.1781C55.2366 56.5126 54.885 56.7874 54.5507 57.0025C54.3316 57.1339 54.0665 57.2713 53.7552 57.4147C53.4439 57.558 53.1096 57.6297 52.7522 57.6297C52.4179 57.6297 52.1354 57.5222 51.9048 57.3071C51.6858 57.0921 51.5763 56.6321 51.5763 55.9272C51.5763 55.6524 51.6224 55.3298 51.7146 54.9595C51.8068 54.5772 51.9452 54.153 52.1296 53.6871L53.0462 51.429L50.5733 54.0097C50.285 54.3083 50.0487 54.5592 49.8643 54.7623C49.6798 54.9655 49.5299 55.1327 49.4146 55.2641C49.1956 55.5031 48.9996 55.7361 48.8267 55.9631C48.6653 56.1901 48.5269 56.3872 48.4116 56.5545C48.3309 56.6859 48.2387 56.7516 48.1349 56.7516C47.9389 56.7516 47.841 56.668 47.841 56.5007C47.841 56.1303 48.1638 55.2761 48.8094 53.938C49.455 52.5999 49.7778 51.7994 49.7778 51.5365C49.7778 51.4171 49.651 51.3573 49.3973 51.3573C48.3713 51.3573 46.544 53.0957 43.9154 56.5724C43.6964 56.895 43.3332 57.3788 42.826 58.024C42.7914 58.0718 42.7337 58.0957 42.653 58.0957Z" fill="black" fill-opacity="0.2"/>
<path d="M59.5174 57.8089C59.0332 57.8089 58.6528 57.6357 58.3761 57.2892C58.0994 56.9428 57.9611 56.5186 57.9611 56.0168C57.9611 55.1566 58.2378 54.2725 58.7911 53.3645C58.941 53.1136 59.1139 52.8687 59.3099 52.6297C59.5059 52.3788 59.7192 52.1399 59.9498 51.9129C60.2956 51.5664 60.6588 51.2797 61.0392 51.0527C61.4197 50.8257 61.7886 50.7122 62.146 50.7122C62.734 50.7122 63.028 50.9989 63.028 51.5724C63.028 52.2892 62.6244 52.9404 61.8174 53.5258C61.0681 54.0515 60.3302 54.3143 59.6039 54.3143C59.4771 54.3143 59.3618 54.3083 59.258 54.2964C59.1658 54.2725 59.0794 54.2486 58.9987 54.2247C58.8834 54.4517 58.7796 54.7444 58.6874 55.1028C58.5951 55.4613 58.549 55.7719 58.549 56.0347C58.549 56.8233 58.8834 57.2175 59.552 57.2175C60.0939 57.2175 60.6069 57.122 61.0911 56.9308C61.5753 56.7277 62.1518 56.3514 62.8204 55.8018C63.2355 55.4672 63.5467 55.1984 63.7543 54.9953C63.9618 54.7922 64.1866 54.5772 64.4287 54.3502C64.4979 54.3024 64.5613 54.2785 64.6189 54.2785C64.6766 54.2785 64.7342 54.2964 64.7918 54.3322C64.8495 54.3681 64.8783 54.4218 64.8783 54.4935C64.8783 54.6249 64.763 54.8101 64.5324 55.0491C64.3365 55.2402 64.1289 55.4433 63.9099 55.6584C63.6909 55.8615 63.345 56.1482 62.8723 56.5186C62.365 56.9248 61.8117 57.2414 61.2122 57.4684C60.6127 57.6954 60.0478 57.8089 59.5174 57.8089ZM59.5002 53.7408C59.8691 53.7408 60.2207 53.6811 60.555 53.5616C60.8894 53.4422 61.2064 53.2689 61.5062 53.0419C62.1748 52.5282 62.5092 52.0443 62.5092 51.5903C62.5092 51.3872 62.3881 51.2856 62.146 51.2856C61.6848 51.2856 61.1488 51.5784 60.5377 52.1638C60.238 52.4505 59.9901 52.7134 59.7941 52.9523C59.6097 53.1793 59.4367 53.4302 59.2753 53.705C59.3445 53.7289 59.4195 53.7408 59.5002 53.7408Z" fill="#BF9D7D"/>
<path d="M59.5174 57.8089C59.0332 57.8089 58.6528 57.6357 58.3761 57.2892C58.0994 56.9428 57.9611 56.5186 57.9611 56.0168C57.9611 55.1566 58.2378 54.2725 58.7911 53.3645C58.941 53.1136 59.1139 52.8687 59.3099 52.6297C59.5059 52.3788 59.7192 52.1399 59.9498 51.9129C60.2956 51.5664 60.6588 51.2797 61.0392 51.0527C61.4197 50.8257 61.7886 50.7122 62.146 50.7122C62.734 50.7122 63.028 50.9989 63.028 51.5724C63.028 52.2892 62.6244 52.9404 61.8174 53.5258C61.0681 54.0515 60.3302 54.3143 59.6039 54.3143C59.4771 54.3143 59.3618 54.3083 59.258 54.2964C59.1658 54.2725 59.0794 54.2486 58.9987 54.2247C58.8834 54.4517 58.7796 54.7444 58.6874 55.1028C58.5951 55.4613 58.549 55.7719 58.549 56.0347C58.549 56.8233 58.8834 57.2175 59.552 57.2175C60.0939 57.2175 60.6069 57.122 61.0911 56.9308C61.5753 56.7277 62.1518 56.3514 62.8204 55.8018C63.2355 55.4672 63.5467 55.1984 63.7543 54.9953C63.9618 54.7922 64.1866 54.5772 64.4287 54.3502C64.4979 54.3024 64.5613 54.2785 64.6189 54.2785C64.6766 54.2785 64.7342 54.2964 64.7918 54.3322C64.8495 54.3681 64.8783 54.4218 64.8783 54.4935C64.8783 54.6249 64.763 54.8101 64.5324 55.0491C64.3365 55.2402 64.1289 55.4433 63.9099 55.6584C63.6909 55.8615 63.345 56.1482 62.8723 56.5186C62.365 56.9248 61.8117 57.2414 61.2122 57.4684C60.6127 57.6954 60.0478 57.8089 59.5174 57.8089ZM59.5002 53.7408C59.8691 53.7408 60.2207 53.6811 60.555 53.5616C60.8894 53.4422 61.2064 53.2689 61.5062 53.0419C62.1748 52.5282 62.5092 52.0443 62.5092 51.5903C62.5092 51.3872 62.3881 51.2856 62.146 51.2856C61.6848 51.2856 61.1488 51.5784 60.5377 52.1638C60.238 52.4505 59.9901 52.7134 59.7941 52.9523C59.6097 53.1793 59.4367 53.4302 59.2753 53.705C59.3445 53.7289 59.4195 53.7408 59.5002 53.7408Z" fill="black" fill-opacity="0.2"/>
<path d="M64.9918 57.9344C64.8073 57.9344 64.7151 57.8567 64.7151 57.7014C64.7151 57.6417 64.7382 57.57 64.7843 57.4864C64.8304 57.3908 64.8707 57.3131 64.9053 57.2534L66.4617 54.0097C67.1304 52.5999 67.4647 51.8173 67.4647 51.662C67.4647 51.4947 67.5454 51.4111 67.7068 51.4111C67.9258 51.4111 68.0354 51.5306 68.0354 51.7695C68.0354 51.8531 67.9835 52.0324 67.8797 52.3071C67.776 52.5819 67.6434 52.8926 67.482 53.239C67.2053 53.8603 66.9747 54.3382 66.7903 54.6727C67.1361 54.2546 67.4878 53.8603 67.8452 53.4899C68.2025 53.1196 68.5657 52.7671 68.9346 52.4326C70.0299 51.441 70.8715 50.9451 71.4594 50.9451C71.8629 50.9451 72.0647 51.1423 72.0647 51.5365C72.0647 51.895 71.7707 52.7014 71.1827 53.9559C70.5948 55.2223 70.3008 56.0228 70.3008 56.3573C70.3008 56.5126 70.3527 56.5903 70.4564 56.5903C70.491 56.5903 70.5429 56.5784 70.6121 56.5545C70.6927 56.5186 70.7735 56.5007 70.8541 56.5007C71.0501 56.5007 71.1481 56.5963 71.1481 56.7874C71.1481 57.0264 70.9003 57.1459 70.4045 57.1459C70.174 57.1459 70.0068 57.0921 69.903 56.9846C69.7993 56.8651 69.7474 56.7098 69.7474 56.5186C69.7474 55.9451 70.0299 55.073 70.5948 53.9021C71.1597 52.7432 71.4421 52.0443 71.4421 51.8054C71.4421 51.662 71.3902 51.5903 71.2865 51.5903C71.0329 51.5903 70.6236 51.8113 70.0587 52.2534C69.4477 52.7313 68.8366 53.2809 68.2256 53.9021C67.6146 54.5234 67.0324 55.2343 66.479 56.0347L65.2685 57.7731C65.1993 57.8806 65.1071 57.9344 64.9918 57.9344Z" fill="#BF9D7D"/>
<path d="M64.9918 57.9344C64.8073 57.9344 64.7151 57.8567 64.7151 57.7014C64.7151 57.6417 64.7382 57.57 64.7843 57.4864C64.8304 57.3908 64.8707 57.3131 64.9053 57.2534L66.4617 54.0097C67.1304 52.5999 67.4647 51.8173 67.4647 51.662C67.4647 51.4947 67.5454 51.4111 67.7068 51.4111C67.9258 51.4111 68.0354 51.5306 68.0354 51.7695C68.0354 51.8531 67.9835 52.0324 67.8797 52.3071C67.776 52.5819 67.6434 52.8926 67.482 53.239C67.2053 53.8603 66.9747 54.3382 66.7903 54.6727C67.1361 54.2546 67.4878 53.8603 67.8452 53.4899C68.2025 53.1196 68.5657 52.7671 68.9346 52.4326C70.0299 51.441 70.8715 50.9451 71.4594 50.9451C71.8629 50.9451 72.0647 51.1423 72.0647 51.5365C72.0647 51.895 71.7707 52.7014 71.1827 53.9559C70.5948 55.2223 70.3008 56.0228 70.3008 56.3573C70.3008 56.5126 70.3527 56.5903 70.4564 56.5903C70.491 56.5903 70.5429 56.5784 70.6121 56.5545C70.6927 56.5186 70.7735 56.5007 70.8541 56.5007C71.0501 56.5007 71.1481 56.5963 71.1481 56.7874C71.1481 57.0264 70.9003 57.1459 70.4045 57.1459C70.174 57.1459 70.0068 57.0921 69.903 56.9846C69.7993 56.8651 69.7474 56.7098 69.7474 56.5186C69.7474 55.9451 70.0299 55.073 70.5948 53.9021C71.1597 52.7432 71.4421 52.0443 71.4421 51.8054C71.4421 51.662 71.3902 51.5903 71.2865 51.5903C71.0329 51.5903 70.6236 51.8113 70.0587 52.2534C69.4477 52.7313 68.8366 53.2809 68.2256 53.9021C67.6146 54.5234 67.0324 55.2343 66.479 56.0347L65.2685 57.7731C65.1993 57.8806 65.1071 57.9344 64.9918 57.9344Z" fill="black" fill-opacity="0.2"/>
<path d="M74.217 58.7229C73.9979 58.7229 73.8884 58.5437 73.8884 58.1853C73.8884 57.6596 74.1709 56.7396 74.7358 55.4254C75.3122 54.1112 76.1653 52.3908 77.2952 50.2641C76.8571 50.2641 76.442 50.3239 76.0501 50.4433C75.6696 50.5509 75.4679 50.6883 75.4448 50.8555C75.4333 50.9033 75.4044 50.9511 75.3583 50.9989C75.3237 51.0347 75.2661 51.0527 75.1854 51.0527C75.0009 51.0527 74.9087 50.9571 74.9087 50.7659C74.9087 50.4553 75.1451 50.1984 75.6177 49.9953C76.0904 49.7922 76.7533 49.6907 77.6064 49.6907L78.7997 47.6477C78.8804 47.5162 78.9668 47.3729 79.0591 47.2175C79.1513 47.0503 79.2551 46.8711 79.3703 46.6799C79.4856 46.5126 79.6182 46.429 79.7681 46.429C79.8603 46.429 79.9295 46.4589 79.9756 46.5186C80.0217 46.5664 80.0448 46.6202 80.0448 46.6799C80.0448 46.8591 79.7911 47.337 79.2839 48.1136C78.6498 49.0813 78.3097 49.607 78.2636 49.6907C78.4365 49.6907 78.6959 49.7086 79.0418 49.7444C79.3876 49.7683 79.7969 49.8101 80.2696 49.8699C80.4425 49.8818 80.529 49.9714 80.529 50.1387C80.529 50.3298 80.4252 50.4254 80.2177 50.4254C80.137 50.4254 79.9756 50.4135 79.7335 50.3896C79.4914 50.3537 79.232 50.3239 78.9553 50.3C78.6786 50.2761 78.4423 50.2701 78.2463 50.2821L77.9869 50.3C75.6466 54.5652 74.4821 57.2175 74.4937 58.257L74.511 58.4003V58.4362C74.511 58.6273 74.413 58.7229 74.217 58.7229Z" fill="#BF9D7D"/>
<path d="M74.217 58.7229C73.9979 58.7229 73.8884 58.5437 73.8884 58.1853C73.8884 57.6596 74.1709 56.7396 74.7358 55.4254C75.3122 54.1112 76.1653 52.3908 77.2952 50.2641C76.8571 50.2641 76.442 50.3239 76.0501 50.4433C75.6696 50.5509 75.4679 50.6883 75.4448 50.8555C75.4333 50.9033 75.4044 50.9511 75.3583 50.9989C75.3237 51.0347 75.2661 51.0527 75.1854 51.0527C75.0009 51.0527 74.9087 50.9571 74.9087 50.7659C74.9087 50.4553 75.1451 50.1984 75.6177 49.9953C76.0904 49.7922 76.7533 49.6907 77.6064 49.6907L78.7997 47.6477C78.8804 47.5162 78.9668 47.3729 79.0591 47.2175C79.1513 47.0503 79.2551 46.8711 79.3703 46.6799C79.4856 46.5126 79.6182 46.429 79.7681 46.429C79.8603 46.429 79.9295 46.4589 79.9756 46.5186C80.0217 46.5664 80.0448 46.6202 80.0448 46.6799C80.0448 46.8591 79.7911 47.337 79.2839 48.1136C78.6498 49.0813 78.3097 49.607 78.2636 49.6907C78.4365 49.6907 78.6959 49.7086 79.0418 49.7444C79.3876 49.7683 79.7969 49.8101 80.2696 49.8699C80.4425 49.8818 80.529 49.9714 80.529 50.1387C80.529 50.3298 80.4252 50.4254 80.2177 50.4254C80.137 50.4254 79.9756 50.4135 79.7335 50.3896C79.4914 50.3537 79.232 50.3239 78.9553 50.3C78.6786 50.2761 78.4423 50.2701 78.2463 50.2821L77.9869 50.3C75.6466 54.5652 74.4821 57.2175 74.4937 58.257L74.511 58.4003V58.4362C74.511 58.6273 74.413 58.7229 74.217 58.7229Z" fill="black" fill-opacity="0.2"/>
<path d="M85.8846 58.257C85.8039 58.257 85.7116 58.2152 85.6079 58.1315C85.5041 58.0479 85.4522 57.9583 85.4522 57.8627C85.4522 57.7552 85.5675 57.4804 85.7981 57.0383C86.0287 56.5963 86.3976 55.9332 86.9049 55.0491C87.4121 54.165 88.075 53.018 88.8936 51.6082L91.159 47.6835C91.2858 47.4445 91.4414 47.1638 91.6259 46.8412C91.8103 46.5186 92.0351 46.1363 92.3003 45.6942C92.3695 45.5867 92.4444 45.533 92.5251 45.533C92.6058 45.533 92.6865 45.5748 92.7672 45.6584C92.8479 45.7301 92.8883 45.8077 92.8883 45.8914C92.8883 45.9392 92.6001 46.4708 92.0236 47.4864C91.4472 48.4899 90.5768 49.9893 89.4124 51.9846C88.9743 52.7373 88.4958 53.5676 87.977 54.4756C87.4698 55.3836 86.9279 56.3693 86.3515 57.4326C89.6948 56.5007 92.2657 56.0347 94.0642 56.0347C94.606 56.0347 95.0557 56.1303 95.4131 56.3215C95.782 56.5007 95.9664 56.6799 95.9664 56.8591C95.9664 57.0622 95.8684 57.1638 95.6725 57.1638C95.5111 57.1638 95.4304 57.0742 95.4304 56.895V56.8412C95.3151 56.7815 95.1191 56.7337 94.8424 56.6978C94.5657 56.662 94.2487 56.6441 93.8913 56.6441C93.4532 56.6441 92.9574 56.6859 92.4041 56.7695C91.8507 56.8412 91.2858 56.9368 90.7093 57.0563C90.1444 57.1638 89.6141 57.2773 89.1184 57.3968C88.6342 57.5043 88.173 57.6178 87.7349 57.7373C87.3084 57.8687 86.9106 57.9822 86.5417 58.0778C86.3227 58.1255 86.1612 58.1674 86.0575 58.2032C85.9653 58.239 85.9076 58.257 85.8846 58.257Z" fill="#BF9D7D"/>
<path d="M85.8846 58.257C85.8039 58.257 85.7116 58.2152 85.6079 58.1315C85.5041 58.0479 85.4522 57.9583 85.4522 57.8627C85.4522 57.7552 85.5675 57.4804 85.7981 57.0383C86.0287 56.5963 86.3976 55.9332 86.9049 55.0491C87.4121 54.165 88.075 53.018 88.8936 51.6082L91.159 47.6835C91.2858 47.4445 91.4414 47.1638 91.6259 46.8412C91.8103 46.5186 92.0351 46.1363 92.3003 45.6942C92.3695 45.5867 92.4444 45.533 92.5251 45.533C92.6058 45.533 92.6865 45.5748 92.7672 45.6584C92.8479 45.7301 92.8883 45.8077 92.8883 45.8914C92.8883 45.9392 92.6001 46.4708 92.0236 47.4864C91.4472 48.4899 90.5768 49.9893 89.4124 51.9846C88.9743 52.7373 88.4958 53.5676 87.977 54.4756C87.4698 55.3836 86.9279 56.3693 86.3515 57.4326C89.6948 56.5007 92.2657 56.0347 94.0642 56.0347C94.606 56.0347 95.0557 56.1303 95.4131 56.3215C95.782 56.5007 95.9664 56.6799 95.9664 56.8591C95.9664 57.0622 95.8684 57.1638 95.6725 57.1638C95.5111 57.1638 95.4304 57.0742 95.4304 56.895V56.8412C95.3151 56.7815 95.1191 56.7337 94.8424 56.6978C94.5657 56.662 94.2487 56.6441 93.8913 56.6441C93.4532 56.6441 92.9574 56.6859 92.4041 56.7695C91.8507 56.8412 91.2858 56.9368 90.7093 57.0563C90.1444 57.1638 89.6141 57.2773 89.1184 57.3968C88.6342 57.5043 88.173 57.6178 87.7349 57.7373C87.3084 57.8687 86.9106 57.9822 86.5417 58.0778C86.3227 58.1255 86.1612 58.1674 86.0575 58.2032C85.9653 58.239 85.9076 58.257 85.8846 58.257Z" fill="black" fill-opacity="0.2"/>
<path d="M103.802 58.0957C103.237 58.0957 102.955 57.6715 102.955 56.8233C102.955 56.3693 103.059 55.8197 103.266 55.1745C101.871 56.8591 100.776 57.7014 99.9805 57.7014C99.3233 57.7014 98.9948 57.2892 98.9948 56.4649C98.9948 56.1542 99.0409 55.7839 99.1331 55.3537C99.2369 54.9117 99.3694 54.4577 99.5309 53.9917C99.7038 53.5258 99.8882 53.0897 100.084 52.6835C100.28 52.2773 100.476 51.9487 100.672 51.6978C100.741 51.6142 100.828 51.5724 100.932 51.5724C100.989 51.5724 101.047 51.5963 101.105 51.6441C101.162 51.6799 101.191 51.7396 101.191 51.8233C101.191 51.895 101.151 51.9965 101.07 52.1279C100.551 53.012 100.182 53.7827 99.9632 54.4398C99.6865 55.1925 99.5481 55.8436 99.5481 56.3932C99.5481 56.9069 99.675 57.1638 99.9286 57.1638C100.09 57.1638 100.303 57.0801 100.568 56.9129C100.834 56.7456 101.105 56.5425 101.381 56.3036C101.669 56.0527 101.917 55.8197 102.125 55.6046C102.701 54.9714 103.22 54.2964 103.681 53.5795C103.889 53.245 104.073 52.9224 104.235 52.6118C104.408 52.2892 104.563 51.9547 104.701 51.6082C104.759 51.4768 104.805 51.3812 104.84 51.3215C104.886 51.2498 104.949 51.214 105.03 51.214C105.272 51.214 105.393 51.3095 105.393 51.5007C105.393 51.6202 105.353 51.7038 105.272 51.7516C104.096 54.2247 103.508 55.9272 103.508 56.8591C103.508 57.11 103.531 57.2892 103.577 57.3968C103.624 57.4923 103.704 57.5401 103.82 57.5401C103.981 57.5401 104.229 57.4326 104.563 57.2175C104.909 57.0025 105.313 56.6739 105.774 56.2319L107.589 54.5114C107.682 54.4159 107.768 54.3681 107.849 54.3681C108.033 54.3681 108.126 54.4577 108.126 54.6369C108.126 54.7922 107.762 55.2104 107.036 55.8914C106.725 56.1901 106.448 56.441 106.206 56.6441C105.964 56.8472 105.739 57.0264 105.532 57.1817C105.14 57.4684 104.794 57.6895 104.494 57.8448C104.194 58.012 103.964 58.0957 103.802 58.0957Z" fill="#BF9D7D"/>
<path d="M103.802 58.0957C103.237 58.0957 102.955 57.6715 102.955 56.8233C102.955 56.3693 103.059 55.8197 103.266 55.1745C101.871 56.8591 100.776 57.7014 99.9805 57.7014C99.3233 57.7014 98.9948 57.2892 98.9948 56.4649C98.9948 56.1542 99.0409 55.7839 99.1331 55.3537C99.2369 54.9117 99.3694 54.4577 99.5309 53.9917C99.7038 53.5258 99.8882 53.0897 100.084 52.6835C100.28 52.2773 100.476 51.9487 100.672 51.6978C100.741 51.6142 100.828 51.5724 100.932 51.5724C100.989 51.5724 101.047 51.5963 101.105 51.6441C101.162 51.6799 101.191 51.7396 101.191 51.8233C101.191 51.895 101.151 51.9965 101.07 52.1279C100.551 53.012 100.182 53.7827 99.9632 54.4398C99.6865 55.1925 99.5481 55.8436 99.5481 56.3932C99.5481 56.9069 99.675 57.1638 99.9286 57.1638C100.09 57.1638 100.303 57.0801 100.568 56.9129C100.834 56.7456 101.105 56.5425 101.381 56.3036C101.669 56.0527 101.917 55.8197 102.125 55.6046C102.701 54.9714 103.22 54.2964 103.681 53.5795C103.889 53.245 104.073 52.9224 104.235 52.6118C104.408 52.2892 104.563 51.9547 104.701 51.6082C104.759 51.4768 104.805 51.3812 104.84 51.3215C104.886 51.2498 104.949 51.214 105.03 51.214C105.272 51.214 105.393 51.3095 105.393 51.5007C105.393 51.6202 105.353 51.7038 105.272 51.7516C104.096 54.2247 103.508 55.9272 103.508 56.8591C103.508 57.11 103.531 57.2892 103.577 57.3968C103.624 57.4923 103.704 57.5401 103.82 57.5401C103.981 57.5401 104.229 57.4326 104.563 57.2175C104.909 57.0025 105.313 56.6739 105.774 56.2319L107.589 54.5114C107.682 54.4159 107.768 54.3681 107.849 54.3681C108.033 54.3681 108.126 54.4577 108.126 54.6369C108.126 54.7922 107.762 55.2104 107.036 55.8914C106.725 56.1901 106.448 56.441 106.206 56.6441C105.964 56.8472 105.739 57.0264 105.532 57.1817C105.14 57.4684 104.794 57.6895 104.494 57.8448C104.194 58.012 103.964 58.0957 103.802 58.0957Z" fill="black" fill-opacity="0.2"/>
<path d="M107.741 57.9344C107.545 57.9344 107.447 57.8388 107.447 57.6476C107.447 57.5521 107.585 57.349 107.862 57.0383C108.15 56.7158 108.588 56.2976 109.176 55.7839L111.251 53.9559C111.171 53.6333 111.096 53.3466 111.026 53.0957C110.969 52.8448 110.911 52.6357 110.854 52.4684C110.634 51.7755 110.438 51.3394 110.266 51.1602C110.196 51.0885 110.162 51.0109 110.162 50.9272C110.162 50.748 110.248 50.6584 110.421 50.6584C110.686 50.6584 110.963 51.0766 111.251 51.9129C111.343 52.1877 111.43 52.4625 111.511 52.7373C111.591 53.012 111.672 53.2868 111.753 53.5616C113.009 52.4864 113.828 51.7456 114.208 51.3394C114.301 51.2438 114.364 51.1721 114.399 51.1244C114.433 51.0766 114.456 51.0347 114.468 50.9989C114.525 50.8675 114.623 50.8018 114.762 50.8018C114.946 50.8018 115.038 50.8914 115.038 51.0706C115.038 51.429 114.001 52.4505 111.926 54.1351C112.064 54.6369 112.208 55.1088 112.358 55.5509C112.508 55.9929 112.681 56.3573 112.877 56.6441C113.084 56.9189 113.315 57.0563 113.569 57.0563C113.811 57.0563 114.064 56.9905 114.329 56.8591C114.606 56.7277 114.883 56.5664 115.159 56.3752C115.436 56.1721 115.684 55.981 115.903 55.8018C116.318 55.4672 116.629 55.1984 116.837 54.9953C117.044 54.7922 117.269 54.5772 117.511 54.3502C117.581 54.3024 117.644 54.2785 117.702 54.2785C117.759 54.2785 117.817 54.2964 117.875 54.3322C117.932 54.3681 117.961 54.4218 117.961 54.4935C117.961 54.6249 117.846 54.8101 117.615 55.0491C117.419 55.2402 117.212 55.4433 116.993 55.6584C116.774 55.8615 116.428 56.1482 115.955 56.5186C115.747 56.6859 115.5 56.8531 115.211 57.0204C114.935 57.1877 114.652 57.3251 114.364 57.4326C114.087 57.5401 113.834 57.5939 113.603 57.5939C113.211 57.5939 112.877 57.4505 112.6 57.1638C112.335 56.8651 112.11 56.4828 111.926 56.0168C111.741 55.5509 111.574 55.061 111.424 54.5473L109.643 56.1244C109.286 56.435 108.969 56.7337 108.692 57.0204C108.415 57.3071 108.173 57.576 107.966 57.8269C107.919 57.8985 107.845 57.9344 107.741 57.9344Z" fill="#BF9D7D"/>
<path d="M107.741 57.9344C107.545 57.9344 107.447 57.8388 107.447 57.6476C107.447 57.5521 107.585 57.349 107.862 57.0383C108.15 56.7158 108.588 56.2976 109.176 55.7839L111.251 53.9559C111.171 53.6333 111.096 53.3466 111.026 53.0957C110.969 52.8448 110.911 52.6357 110.854 52.4684C110.634 51.7755 110.438 51.3394 110.266 51.1602C110.196 51.0885 110.162 51.0109 110.162 50.9272C110.162 50.748 110.248 50.6584 110.421 50.6584C110.686 50.6584 110.963 51.0766 111.251 51.9129C111.343 52.1877 111.43 52.4625 111.511 52.7373C111.591 53.012 111.672 53.2868 111.753 53.5616C113.009 52.4864 113.828 51.7456 114.208 51.3394C114.301 51.2438 114.364 51.1721 114.399 51.1244C114.433 51.0766 114.456 51.0347 114.468 50.9989C114.525 50.8675 114.623 50.8018 114.762 50.8018C114.946 50.8018 115.038 50.8914 115.038 51.0706C115.038 51.429 114.001 52.4505 111.926 54.1351C112.064 54.6369 112.208 55.1088 112.358 55.5509C112.508 55.9929 112.681 56.3573 112.877 56.6441C113.084 56.9189 113.315 57.0563 113.569 57.0563C113.811 57.0563 114.064 56.9905 114.329 56.8591C114.606 56.7277 114.883 56.5664 115.159 56.3752C115.436 56.1721 115.684 55.981 115.903 55.8018C116.318 55.4672 116.629 55.1984 116.837 54.9953C117.044 54.7922 117.269 54.5772 117.511 54.3502C117.581 54.3024 117.644 54.2785 117.702 54.2785C117.759 54.2785 117.817 54.2964 117.875 54.3322C117.932 54.3681 117.961 54.4218 117.961 54.4935C117.961 54.6249 117.846 54.8101 117.615 55.0491C117.419 55.2402 117.212 55.4433 116.993 55.6584C116.774 55.8615 116.428 56.1482 115.955 56.5186C115.747 56.6859 115.5 56.8531 115.211 57.0204C114.935 57.1877 114.652 57.3251 114.364 57.4326C114.087 57.5401 113.834 57.5939 113.603 57.5939C113.211 57.5939 112.877 57.4505 112.6 57.1638C112.335 56.8651 112.11 56.4828 111.926 56.0168C111.741 55.5509 111.574 55.061 111.424 54.5473L109.643 56.1244C109.286 56.435 108.969 56.7337 108.692 57.0204C108.415 57.3071 108.173 57.576 107.966 57.8269C107.919 57.8985 107.845 57.9344 107.741 57.9344Z" fill="black" fill-opacity="0.2"/>
<path d="M123.473 58.0957C122.908 58.0957 122.626 57.6715 122.626 56.8233C122.626 56.3693 122.73 55.8197 122.937 55.1745C121.542 56.8591 120.447 57.7014 119.651 57.7014C118.994 57.7014 118.666 57.2892 118.666 56.4649C118.666 56.1542 118.712 55.7839 118.804 55.3537C118.908 54.9117 119.04 54.4577 119.202 53.9917C119.375 53.5258 119.559 53.0897 119.755 52.6835C119.951 52.2773 120.147 51.9487 120.343 51.6978C120.412 51.6142 120.499 51.5724 120.602 51.5724C120.66 51.5724 120.718 51.5963 120.775 51.6441C120.833 51.6799 120.862 51.7396 120.862 51.8233C120.862 51.895 120.822 51.9965 120.741 52.1279C120.222 53.012 119.853 53.7827 119.634 54.4398C119.357 55.1925 119.219 55.8436 119.219 56.3932C119.219 56.9069 119.346 57.1638 119.599 57.1638C119.761 57.1638 119.974 57.0801 120.239 56.9129C120.505 56.7456 120.775 56.5425 121.052 56.3036C121.34 56.0527 121.588 55.8197 121.796 55.6046C122.372 54.9714 122.891 54.2964 123.352 53.5795C123.56 53.245 123.744 52.9224 123.905 52.6118C124.078 52.2892 124.234 51.9547 124.372 51.6082C124.43 51.4768 124.476 51.3812 124.511 51.3215C124.557 51.2498 124.62 51.214 124.701 51.214C124.943 51.214 125.064 51.3095 125.064 51.5007C125.064 51.6202 125.024 51.7038 124.943 51.7516C123.767 54.2247 123.179 55.9272 123.179 56.8591C123.179 57.11 123.202 57.2892 123.248 57.3968C123.294 57.4923 123.375 57.5401 123.49 57.5401C123.652 57.5401 123.9 57.4326 124.234 57.2175C124.58 57.0025 124.983 56.6739 125.445 56.2319L127.26 54.5114C127.353 54.4159 127.439 54.3681 127.52 54.3681C127.704 54.3681 127.796 54.4577 127.796 54.6369C127.796 54.7922 127.433 55.2104 126.707 55.8914C126.396 56.1901 126.119 56.441 125.877 56.6441C125.635 56.8472 125.41 57.0264 125.202 57.1817C124.81 57.4684 124.465 57.6895 124.165 57.8448C123.865 58.012 123.635 58.0957 123.473 58.0957Z" fill="#BF9D7D"/>
<path d="M123.473 58.0957C122.908 58.0957 122.626 57.6715 122.626 56.8233C122.626 56.3693 122.73 55.8197 122.937 55.1745C121.542 56.8591 120.447 57.7014 119.651 57.7014C118.994 57.7014 118.666 57.2892 118.666 56.4649C118.666 56.1542 118.712 55.7839 118.804 55.3537C118.908 54.9117 119.04 54.4577 119.202 53.9917C119.375 53.5258 119.559 53.0897 119.755 52.6835C119.951 52.2773 120.147 51.9487 120.343 51.6978C120.412 51.6142 120.499 51.5724 120.602 51.5724C120.66 51.5724 120.718 51.5963 120.775 51.6441C120.833 51.6799 120.862 51.7396 120.862 51.8233C120.862 51.895 120.822 51.9965 120.741 52.1279C120.222 53.012 119.853 53.7827 119.634 54.4398C119.357 55.1925 119.219 55.8436 119.219 56.3932C119.219 56.9069 119.346 57.1638 119.599 57.1638C119.761 57.1638 119.974 57.0801 120.239 56.9129C120.505 56.7456 120.775 56.5425 121.052 56.3036C121.34 56.0527 121.588 55.8197 121.796 55.6046C122.372 54.9714 122.891 54.2964 123.352 53.5795C123.56 53.245 123.744 52.9224 123.905 52.6118C124.078 52.2892 124.234 51.9547 124.372 51.6082C124.43 51.4768 124.476 51.3812 124.511 51.3215C124.557 51.2498 124.62 51.214 124.701 51.214C124.943 51.214 125.064 51.3095 125.064 51.5007C125.064 51.6202 125.024 51.7038 124.943 51.7516C123.767 54.2247 123.179 55.9272 123.179 56.8591C123.179 57.11 123.202 57.2892 123.248 57.3968C123.294 57.4923 123.375 57.5401 123.49 57.5401C123.652 57.5401 123.9 57.4326 124.234 57.2175C124.58 57.0025 124.983 56.6739 125.445 56.2319L127.26 54.5114C127.353 54.4159 127.439 54.3681 127.52 54.3681C127.704 54.3681 127.796 54.4577 127.796 54.6369C127.796 54.7922 127.433 55.2104 126.707 55.8914C126.396 56.1901 126.119 56.441 125.877 56.6441C125.635 56.8472 125.41 57.0264 125.202 57.1817C124.81 57.4684 124.465 57.6895 124.165 57.8448C123.865 58.012 123.635 58.0957 123.473 58.0957Z" fill="black" fill-opacity="0.2"/>
<path d="M127.879 57.9344C127.694 57.9344 127.602 57.8567 127.602 57.7014C127.602 57.6297 127.619 57.558 127.654 57.4864C127.7 57.4147 127.734 57.3549 127.757 57.3071L129.331 54.0097C130 52.5999 130.334 51.8173 130.334 51.662C130.334 51.4947 130.415 51.4111 130.576 51.4111C130.795 51.4111 130.905 51.5246 130.905 51.7516C130.905 51.8711 130.853 52.0622 130.749 52.3251C130.645 52.5879 130.513 52.8926 130.351 53.239C130.075 53.8603 129.844 54.3382 129.66 54.6727C130.006 54.2546 130.357 53.8603 130.715 53.4899C131.072 53.1196 131.435 52.7671 131.804 52.4326C132.899 51.441 133.741 50.9451 134.329 50.9451C134.732 50.9451 134.934 51.1423 134.934 51.5365C134.934 51.9189 134.813 52.11 134.571 52.11C134.456 52.11 134.369 52.0085 134.312 51.8054C134.277 51.662 134.196 51.5903 134.069 51.5903C133.873 51.5903 133.493 51.8113 132.928 52.2534C132.306 52.7313 131.677 53.2988 131.043 53.9559C130.421 54.613 129.758 55.4493 129.054 56.4649L128.19 57.7193C128.144 57.7791 128.098 57.8269 128.051 57.8627C128.017 57.9105 127.959 57.9344 127.879 57.9344Z" fill="#BF9D7D"/>
<path d="M127.879 57.9344C127.694 57.9344 127.602 57.8567 127.602 57.7014C127.602 57.6297 127.619 57.558 127.654 57.4864C127.7 57.4147 127.734 57.3549 127.757 57.3071L129.331 54.0097C130 52.5999 130.334 51.8173 130.334 51.662C130.334 51.4947 130.415 51.4111 130.576 51.4111C130.795 51.4111 130.905 51.5246 130.905 51.7516C130.905 51.8711 130.853 52.0622 130.749 52.3251C130.645 52.5879 130.513 52.8926 130.351 53.239C130.075 53.8603 129.844 54.3382 129.66 54.6727C130.006 54.2546 130.357 53.8603 130.715 53.4899C131.072 53.1196 131.435 52.7671 131.804 52.4326C132.899 51.441 133.741 50.9451 134.329 50.9451C134.732 50.9451 134.934 51.1423 134.934 51.5365C134.934 51.9189 134.813 52.11 134.571 52.11C134.456 52.11 134.369 52.0085 134.312 51.8054C134.277 51.662 134.196 51.5903 134.069 51.5903C133.873 51.5903 133.493 51.8113 132.928 52.2534C132.306 52.7313 131.677 53.2988 131.043 53.9559C130.421 54.613 129.758 55.4493 129.054 56.4649L128.19 57.7193C128.144 57.7791 128.098 57.8269 128.051 57.8627C128.017 57.9105 127.959 57.9344 127.879 57.9344Z" fill="black" fill-opacity="0.2"/>
<path d="M135.527 63.4183C134.824 63.4183 134.472 62.9882 134.472 62.1279C134.472 61.3991 134.622 60.6942 134.922 60.0132C134.968 59.8938 135.043 59.834 135.147 59.834C135.354 59.834 135.458 59.9296 135.458 60.1208C135.458 60.1686 135.441 60.2283 135.406 60.3C135.383 60.3836 135.354 60.4732 135.32 60.5688C135.239 60.7958 135.175 61.0347 135.129 61.2856C135.083 61.5365 135.06 61.7994 135.06 62.0742C135.06 62.3848 135.101 62.5939 135.181 62.7014C135.262 62.8089 135.366 62.8627 135.493 62.8627C135.792 62.8627 136.144 62.7193 136.547 62.4326C136.962 62.1459 137.389 61.6919 137.827 61.0706C138.138 60.6285 138.461 60.1028 138.796 59.4935C139.13 58.8842 139.487 58.1853 139.868 57.3968C140.375 56.3573 140.842 55.3 141.268 54.2247C140.98 54.607 140.68 54.9774 140.369 55.3358C140.058 55.6942 139.724 56.0288 139.366 56.3394C138.409 57.1877 137.614 57.6118 136.98 57.6118C136.219 57.6118 135.838 57.1578 135.838 56.2498C135.838 55.9272 135.896 55.5389 136.011 55.0849C136.138 54.6309 136.311 54.1112 136.53 53.5258C136.565 53.4302 136.582 53.3525 136.582 53.2928C136.582 53.2211 136.599 53.1494 136.634 53.0778C136.818 52.6596 137.124 52.1936 137.55 51.6799C137.643 51.5724 137.723 51.5186 137.793 51.5186C137.965 51.5186 138.052 51.65 138.052 51.9129C136.934 53.6214 136.374 55.067 136.374 56.2498C136.374 56.7516 136.565 57.0025 136.945 57.0025C137.372 57.0025 137.965 56.6978 138.726 56.0885C139.268 55.6584 139.77 55.1745 140.231 54.6369C140.692 54.0873 141.107 53.5198 141.476 52.9344C141.73 52.5401 141.931 52.1936 142.081 51.895C142.243 51.5843 142.341 51.3752 142.375 51.2677C142.433 51.0885 142.514 50.9989 142.617 50.9989C142.836 50.9989 142.946 51.0945 142.946 51.2856C142.946 51.3812 142.9 51.5545 142.808 51.8054C142.727 52.0443 142.623 52.331 142.496 52.6656C142.312 53.1554 142.047 53.8125 141.701 54.6369C141.355 55.4613 140.923 56.441 140.404 57.576C139.758 58.9858 139.124 60.1387 138.502 61.0347C138.04 61.7157 137.533 62.2833 136.98 62.7373C136.438 63.1913 135.954 63.4183 135.527 63.4183Z" fill="#BF9D7D"/>
<path d="M135.527 63.4183C134.824 63.4183 134.472 62.9882 134.472 62.1279C134.472 61.3991 134.622 60.6942 134.922 60.0132C134.968 59.8938 135.043 59.834 135.147 59.834C135.354 59.834 135.458 59.9296 135.458 60.1208C135.458 60.1686 135.441 60.2283 135.406 60.3C135.383 60.3836 135.354 60.4732 135.32 60.5688C135.239 60.7958 135.175 61.0347 135.129 61.2856C135.083 61.5365 135.06 61.7994 135.06 62.0742C135.06 62.3848 135.101 62.5939 135.181 62.7014C135.262 62.8089 135.366 62.8627 135.493 62.8627C135.792 62.8627 136.144 62.7193 136.547 62.4326C136.962 62.1459 137.389 61.6919 137.827 61.0706C138.138 60.6285 138.461 60.1028 138.796 59.4935C139.13 58.8842 139.487 58.1853 139.868 57.3968C140.375 56.3573 140.842 55.3 141.268 54.2247C140.98 54.607 140.68 54.9774 140.369 55.3358C140.058 55.6942 139.724 56.0288 139.366 56.3394C138.409 57.1877 137.614 57.6118 136.98 57.6118C136.219 57.6118 135.838 57.1578 135.838 56.2498C135.838 55.9272 135.896 55.5389 136.011 55.0849C136.138 54.6309 136.311 54.1112 136.53 53.5258C136.565 53.4302 136.582 53.3525 136.582 53.2928C136.582 53.2211 136.599 53.1494 136.634 53.0778C136.818 52.6596 137.124 52.1936 137.55 51.6799C137.643 51.5724 137.723 51.5186 137.793 51.5186C137.965 51.5186 138.052 51.65 138.052 51.9129C136.934 53.6214 136.374 55.067 136.374 56.2498C136.374 56.7516 136.565 57.0025 136.945 57.0025C137.372 57.0025 137.965 56.6978 138.726 56.0885C139.268 55.6584 139.77 55.1745 140.231 54.6369C140.692 54.0873 141.107 53.5198 141.476 52.9344C141.73 52.5401 141.931 52.1936 142.081 51.895C142.243 51.5843 142.341 51.3752 142.375 51.2677C142.433 51.0885 142.514 50.9989 142.617 50.9989C142.836 50.9989 142.946 51.0945 142.946 51.2856C142.946 51.3812 142.9 51.5545 142.808 51.8054C142.727 52.0443 142.623 52.331 142.496 52.6656C142.312 53.1554 142.047 53.8125 141.701 54.6369C141.355 55.4613 140.923 56.441 140.404 57.576C139.758 58.9858 139.124 60.1387 138.502 61.0347C138.04 61.7157 137.533 62.2833 136.98 62.7373C136.438 63.1913 135.954 63.4183 135.527 63.4183Z" fill="black" fill-opacity="0.2"/>
<path d="M151.335 59.2426C151.116 59.2426 151.006 59.1411 151.006 58.938C151.006 57.5282 151.802 55.3298 153.393 52.343C153.508 52.1279 153.687 51.8113 153.929 51.3932C153.537 51.441 153.208 51.5306 152.943 51.662C152.689 51.7815 152.522 51.8412 152.442 51.8412C152.234 51.8412 152.13 51.7396 152.13 51.5365C152.13 51.2259 152.845 50.9571 154.275 50.7301C154.471 50.3836 154.718 49.9535 155.018 49.4398C155.329 48.926 155.698 48.3227 156.125 47.6297C156.436 47.116 156.701 46.668 156.92 46.2856C157.139 45.8914 157.318 45.533 157.457 45.2104C157.503 45.0909 157.578 45.0312 157.681 45.0312C157.9 45.0312 158.01 45.1506 158.01 45.3896C158.01 45.4732 157.872 45.754 157.595 46.2319C157.33 46.6978 156.909 47.4147 156.332 48.3824L154.966 50.6584C155.404 50.6106 155.866 50.5748 156.35 50.5509C156.834 50.527 157.33 50.515 157.837 50.515C158.852 50.515 160.713 50.6046 163.423 50.7839C163.653 50.2701 163.895 49.7683 164.149 49.2785C164.414 48.7767 164.691 48.2809 164.979 47.791C165.394 47.0622 165.757 46.4947 166.068 46.0885C166.38 45.6704 166.61 45.4015 166.76 45.2821C166.91 45.1626 167.031 45.1028 167.123 45.1028C167.296 45.1028 167.383 45.1984 167.383 45.3896C167.383 45.4852 167.331 45.5688 167.227 45.6405C167.02 45.7958 166.766 46.0766 166.466 46.4828C166.166 46.889 165.832 47.4206 165.463 48.0778C164.91 49.0455 164.437 49.9655 164.045 50.8376C164.449 50.8376 164.65 50.9392 164.65 51.1423C164.65 51.2259 164.622 51.2976 164.564 51.3573C164.506 51.4171 164.42 51.441 164.305 51.429L163.786 51.3932C162.621 54.0813 162.039 55.9212 162.039 56.9129V57.3071C162.039 57.4505 161.941 57.5222 161.745 57.5222C161.561 57.5222 161.469 57.3131 161.469 56.895C161.469 55.8436 162.033 53.9917 163.163 51.3394C161.757 51.2558 160.598 51.196 159.687 51.1602C158.788 51.1244 158.137 51.1064 157.733 51.1064C156.603 51.1064 155.572 51.1602 154.638 51.2677L153.894 52.6118C153.329 53.6512 152.885 54.5831 152.563 55.4075C152.24 56.2199 152.021 56.8293 151.905 57.2355C151.79 57.7014 151.715 58.0598 151.681 58.3107C151.646 58.5616 151.617 58.7946 151.594 59.0097C151.583 59.165 151.496 59.2426 151.335 59.2426Z" fill="#BF9D7D"/>
<path d="M151.335 59.2426C151.116 59.2426 151.006 59.1411 151.006 58.938C151.006 57.5282 151.802 55.3298 153.393 52.343C153.508 52.1279 153.687 51.8113 153.929 51.3932C153.537 51.441 153.208 51.5306 152.943 51.662C152.689 51.7815 152.522 51.8412 152.442 51.8412C152.234 51.8412 152.13 51.7396 152.13 51.5365C152.13 51.2259 152.845 50.9571 154.275 50.7301C154.471 50.3836 154.718 49.9535 155.018 49.4398C155.329 48.926 155.698 48.3227 156.125 47.6297C156.436 47.116 156.701 46.668 156.92 46.2856C157.139 45.8914 157.318 45.533 157.457 45.2104C157.503 45.0909 157.578 45.0312 157.681 45.0312C157.9 45.0312 158.01 45.1506 158.01 45.3896C158.01 45.4732 157.872 45.754 157.595 46.2319C157.33 46.6978 156.909 47.4147 156.332 48.3824L154.966 50.6584C155.404 50.6106 155.866 50.5748 156.35 50.5509C156.834 50.527 157.33 50.515 157.837 50.515C158.852 50.515 160.713 50.6046 163.423 50.7839C163.653 50.2701 163.895 49.7683 164.149 49.2785C164.414 48.7767 164.691 48.2809 164.979 47.791C165.394 47.0622 165.757 46.4947 166.068 46.0885C166.38 45.6704 166.61 45.4015 166.76 45.2821C166.91 45.1626 167.031 45.1028 167.123 45.1028C167.296 45.1028 167.383 45.1984 167.383 45.3896C167.383 45.4852 167.331 45.5688 167.227 45.6405C167.02 45.7958 166.766 46.0766 166.466 46.4828C166.166 46.889 165.832 47.4206 165.463 48.0778C164.91 49.0455 164.437 49.9655 164.045 50.8376C164.449 50.8376 164.65 50.9392 164.65 51.1423C164.65 51.2259 164.622 51.2976 164.564 51.3573C164.506 51.4171 164.42 51.441 164.305 51.429L163.786 51.3932C162.621 54.0813 162.039 55.9212 162.039 56.9129V57.3071C162.039 57.4505 161.941 57.5222 161.745 57.5222C161.561 57.5222 161.469 57.3131 161.469 56.895C161.469 55.8436 162.033 53.9917 163.163 51.3394C161.757 51.2558 160.598 51.196 159.687 51.1602C158.788 51.1244 158.137 51.1064 157.733 51.1064C156.603 51.1064 155.572 51.1602 154.638 51.2677L153.894 52.6118C153.329 53.6512 152.885 54.5831 152.563 55.4075C152.24 56.2199 152.021 56.8293 151.905 57.2355C151.79 57.7014 151.715 58.0598 151.681 58.3107C151.646 58.5616 151.617 58.7946 151.594 59.0097C151.583 59.165 151.496 59.2426 151.335 59.2426Z" fill="black" fill-opacity="0.2"/>
<path d="M169.125 57.3968C168.191 57.3968 167.724 56.8531 167.724 55.7659C167.724 55.2641 167.84 54.7385 168.07 54.1889C168.301 53.6393 168.606 53.1315 168.987 52.6656C169.367 52.1877 169.788 51.7994 170.249 51.5007C170.722 51.202 171.2 51.0527 171.684 51.0527C172.111 51.0527 172.422 51.2199 172.618 51.5545C172.814 51.889 172.912 52.2594 172.912 52.6656C172.912 53.2032 172.808 53.7528 172.601 54.3143C172.393 54.8639 172.111 55.3717 171.754 55.8376C171.396 56.3036 170.993 56.6799 170.543 56.9666C170.093 57.2534 169.621 57.3968 169.125 57.3968ZM169.108 56.8233C169.177 56.8233 169.217 56.8173 169.229 56.8054C169.678 56.7456 170.093 56.5784 170.474 56.3036C170.854 56.0288 171.183 55.6883 171.46 55.2821C171.748 54.8639 171.967 54.4159 172.117 53.938C172.267 53.4601 172.342 52.9882 172.342 52.5222C172.342 52.2474 172.267 52.0324 172.117 51.877C171.967 51.7217 171.777 51.6441 171.546 51.6441C171.212 51.6441 170.854 51.7874 170.474 52.0742C170.105 52.3609 169.753 52.7253 169.419 53.1674C169.096 53.6094 168.831 54.0754 168.624 54.5652C168.416 55.0431 168.312 55.4732 168.312 55.8555C168.312 56.5007 168.577 56.8233 169.108 56.8233Z" fill="#BF9D7D"/>
<path d="M169.125 57.3968C168.191 57.3968 167.724 56.8531 167.724 55.7659C167.724 55.2641 167.84 54.7385 168.07 54.1889C168.301 53.6393 168.606 53.1315 168.987 52.6656C169.367 52.1877 169.788 51.7994 170.249 51.5007C170.722 51.202 171.2 51.0527 171.684 51.0527C172.111 51.0527 172.422 51.2199 172.618 51.5545C172.814 51.889 172.912 52.2594 172.912 52.6656C172.912 53.2032 172.808 53.7528 172.601 54.3143C172.393 54.8639 172.111 55.3717 171.754 55.8376C171.396 56.3036 170.993 56.6799 170.543 56.9666C170.093 57.2534 169.621 57.3968 169.125 57.3968ZM169.108 56.8233C169.177 56.8233 169.217 56.8173 169.229 56.8054C169.678 56.7456 170.093 56.5784 170.474 56.3036C170.854 56.0288 171.183 55.6883 171.46 55.2821C171.748 54.8639 171.967 54.4159 172.117 53.938C172.267 53.4601 172.342 52.9882 172.342 52.5222C172.342 52.2474 172.267 52.0324 172.117 51.877C171.967 51.7217 171.777 51.6441 171.546 51.6441C171.212 51.6441 170.854 51.7874 170.474 52.0742C170.105 52.3609 169.753 52.7253 169.419 53.1674C169.096 53.6094 168.831 54.0754 168.624 54.5652C168.416 55.0431 168.312 55.4732 168.312 55.8555C168.312 56.5007 168.577 56.8233 169.108 56.8233Z" fill="black" fill-opacity="0.2"/>
<path d="M175.23 58.7229C175.011 58.7229 174.901 58.5437 174.901 58.1853C174.901 57.6596 175.184 56.7396 175.748 55.4254C176.325 54.1112 177.178 52.3908 178.308 50.2641C177.87 50.2641 177.455 50.3239 177.063 50.4433C176.682 50.5509 176.48 50.6883 176.457 50.8555C176.446 50.9033 176.417 50.9511 176.371 50.9989C176.336 51.0347 176.279 51.0527 176.198 51.0527C176.014 51.0527 175.921 50.9571 175.921 50.7659C175.921 50.4553 176.158 50.1984 176.63 49.9953C177.103 49.7922 177.766 49.6907 178.619 49.6907L179.812 47.6477C179.893 47.5162 179.979 47.3729 180.072 47.2175C180.164 47.0503 180.268 46.8711 180.383 46.6799C180.498 46.5126 180.631 46.429 180.781 46.429C180.873 46.429 180.942 46.4589 180.988 46.5186C181.034 46.5664 181.057 46.6202 181.057 46.6799C181.057 46.8591 180.804 47.337 180.297 48.1136C179.662 49.0813 179.322 49.607 179.276 49.6907C179.449 49.6907 179.709 49.7086 180.054 49.7444C180.4 49.7683 180.81 49.8101 181.282 49.8699C181.455 49.8818 181.542 49.9714 181.542 50.1387C181.542 50.3298 181.438 50.4254 181.23 50.4254C181.15 50.4254 180.988 50.4135 180.746 50.3896C180.504 50.3537 180.245 50.3239 179.968 50.3C179.691 50.2761 179.455 50.2701 179.259 50.2821L179 50.3C176.659 54.5652 175.495 57.2175 175.506 58.257L175.524 58.4003V58.4362C175.524 58.6273 175.426 58.7229 175.23 58.7229Z" fill="#BF9D7D"/>
<path d="M175.23 58.7229C175.011 58.7229 174.901 58.5437 174.901 58.1853C174.901 57.6596 175.184 56.7396 175.748 55.4254C176.325 54.1112 177.178 52.3908 178.308 50.2641C177.87 50.2641 177.455 50.3239 177.063 50.4433C176.682 50.5509 176.48 50.6883 176.457 50.8555C176.446 50.9033 176.417 50.9511 176.371 50.9989C176.336 51.0347 176.279 51.0527 176.198 51.0527C176.014 51.0527 175.921 50.9571 175.921 50.7659C175.921 50.4553 176.158 50.1984 176.63 49.9953C177.103 49.7922 177.766 49.6907 178.619 49.6907L179.812 47.6477C179.893 47.5162 179.979 47.3729 180.072 47.2175C180.164 47.0503 180.268 46.8711 180.383 46.6799C180.498 46.5126 180.631 46.429 180.781 46.429C180.873 46.429 180.942 46.4589 180.988 46.5186C181.034 46.5664 181.057 46.6202 181.057 46.6799C181.057 46.8591 180.804 47.337 180.297 48.1136C179.662 49.0813 179.322 49.607 179.276 49.6907C179.449 49.6907 179.709 49.7086 180.054 49.7444C180.4 49.7683 180.81 49.8101 181.282 49.8699C181.455 49.8818 181.542 49.9714 181.542 50.1387C181.542 50.3298 181.438 50.4254 181.23 50.4254C181.15 50.4254 180.988 50.4135 180.746 50.3896C180.504 50.3537 180.245 50.3239 179.968 50.3C179.691 50.2761 179.455 50.2701 179.259 50.2821L179 50.3C176.659 54.5652 175.495 57.2175 175.506 58.257L175.524 58.4003V58.4362C175.524 58.6273 175.426 58.7229 175.23 58.7229Z" fill="black" fill-opacity="0.2"/>
<path d="M182.623 57.8089C182.139 57.8089 181.758 57.6357 181.481 57.2892C181.205 56.9428 181.066 56.5186 181.066 56.0168C181.066 55.1566 181.343 54.2725 181.896 53.3645C182.046 53.1136 182.219 52.8687 182.415 52.6297C182.611 52.3788 182.824 52.1399 183.055 51.9129C183.401 51.5664 183.764 51.2797 184.145 51.0527C184.525 50.8257 184.894 50.7122 185.251 50.7122C185.839 50.7122 186.133 50.9989 186.133 51.5724C186.133 52.2892 185.73 52.9404 184.923 53.5258C184.173 54.0515 183.436 54.3143 182.709 54.3143C182.582 54.3143 182.467 54.3083 182.363 54.2964C182.271 54.2725 182.185 54.2486 182.104 54.2247C181.989 54.4517 181.885 54.7444 181.793 55.1028C181.7 55.4613 181.654 55.7719 181.654 56.0347C181.654 56.8233 181.989 57.2175 182.657 57.2175C183.199 57.2175 183.712 57.122 184.196 56.9308C184.681 56.7277 185.257 56.3514 185.926 55.8018C186.341 55.4672 186.652 55.1984 186.86 54.9953C187.067 54.7922 187.292 54.5772 187.534 54.3502C187.603 54.3024 187.667 54.2785 187.724 54.2785C187.782 54.2785 187.839 54.2964 187.897 54.3322C187.955 54.3681 187.984 54.4218 187.984 54.4935C187.984 54.6249 187.868 54.8101 187.638 55.0491C187.442 55.2402 187.234 55.4433 187.015 55.6584C186.796 55.8615 186.45 56.1482 185.978 56.5186C185.47 56.9248 184.917 57.2414 184.317 57.4684C183.718 57.6954 183.153 57.8089 182.623 57.8089ZM182.605 53.7408C182.974 53.7408 183.326 53.6811 183.66 53.5616C183.995 53.4422 184.312 53.2689 184.611 53.0419C185.28 52.5282 185.614 52.0443 185.614 51.5903C185.614 51.3872 185.493 51.2856 185.251 51.2856C184.79 51.2856 184.254 51.5784 183.643 52.1638C183.343 52.4505 183.095 52.7134 182.899 52.9523C182.715 53.1793 182.542 53.4302 182.381 53.705C182.45 53.7289 182.525 53.7408 182.605 53.7408Z" fill="#BF9D7D"/>
<path d="M182.623 57.8089C182.139 57.8089 181.758 57.6357 181.481 57.2892C181.205 56.9428 181.066 56.5186 181.066 56.0168C181.066 55.1566 181.343 54.2725 181.896 53.3645C182.046 53.1136 182.219 52.8687 182.415 52.6297C182.611 52.3788 182.824 52.1399 183.055 51.9129C183.401 51.5664 183.764 51.2797 184.145 51.0527C184.525 50.8257 184.894 50.7122 185.251 50.7122C185.839 50.7122 186.133 50.9989 186.133 51.5724C186.133 52.2892 185.73 52.9404 184.923 53.5258C184.173 54.0515 183.436 54.3143 182.709 54.3143C182.582 54.3143 182.467 54.3083 182.363 54.2964C182.271 54.2725 182.185 54.2486 182.104 54.2247C181.989 54.4517 181.885 54.7444 181.793 55.1028C181.7 55.4613 181.654 55.7719 181.654 56.0347C181.654 56.8233 181.989 57.2175 182.657 57.2175C183.199 57.2175 183.712 57.122 184.196 56.9308C184.681 56.7277 185.257 56.3514 185.926 55.8018C186.341 55.4672 186.652 55.1984 186.86 54.9953C187.067 54.7922 187.292 54.5772 187.534 54.3502C187.603 54.3024 187.667 54.2785 187.724 54.2785C187.782 54.2785 187.839 54.2964 187.897 54.3322C187.955 54.3681 187.984 54.4218 187.984 54.4935C187.984 54.6249 187.868 54.8101 187.638 55.0491C187.442 55.2402 187.234 55.4433 187.015 55.6584C186.796 55.8615 186.45 56.1482 185.978 56.5186C185.47 56.9248 184.917 57.2414 184.317 57.4684C183.718 57.6954 183.153 57.8089 182.623 57.8089ZM182.605 53.7408C182.974 53.7408 183.326 53.6811 183.66 53.5616C183.995 53.4422 184.312 53.2689 184.611 53.0419C185.28 52.5282 185.614 52.0443 185.614 51.5903C185.614 51.3872 185.493 51.2856 185.251 51.2856C184.79 51.2856 184.254 51.5784 183.643 52.1638C183.343 52.4505 183.095 52.7134 182.899 52.9523C182.715 53.1793 182.542 53.4302 182.381 53.705C182.45 53.7289 182.525 53.7408 182.605 53.7408Z" fill="black" fill-opacity="0.2"/>
<path d="M190.587 57.9702C190.057 57.9702 189.648 57.803 189.359 57.4684C189.083 57.122 188.944 56.668 188.944 56.1064C188.944 55.7002 189.014 55.2104 189.152 54.6369C189.394 53.6692 189.803 52.5461 190.38 51.2677C190.829 50.3 191.314 49.3502 191.832 48.4183C192.351 47.4744 192.922 46.5485 193.544 45.6405C194.536 44.1829 195.228 43.4541 195.62 43.4541C195.873 43.4541 196 43.5258 196 43.6692C196 43.8723 195.677 44.38 195.032 45.1925L193.821 46.7158C192.772 48.03 191.913 49.3741 191.244 50.748C190.587 52.122 190.074 53.4959 189.705 54.8699C189.602 55.2641 189.55 55.6345 189.55 55.981C189.55 56.889 189.907 57.343 190.622 57.343C190.875 57.343 191.135 57.2653 191.4 57.11C191.665 56.9666 191.809 56.895 191.832 56.895C191.971 56.895 192.04 56.9965 192.04 57.1996C192.04 57.3788 191.976 57.5162 191.85 57.6118C191.458 57.8508 191.037 57.9702 190.587 57.9702Z" fill="#BF9D7D"/>
<path d="M190.587 57.9702C190.057 57.9702 189.648 57.803 189.359 57.4684C189.083 57.122 188.944 56.668 188.944 56.1064C188.944 55.7002 189.014 55.2104 189.152 54.6369C189.394 53.6692 189.803 52.5461 190.38 51.2677C190.829 50.3 191.314 49.3502 191.832 48.4183C192.351 47.4744 192.922 46.5485 193.544 45.6405C194.536 44.1829 195.228 43.4541 195.62 43.4541C195.873 43.4541 196 43.5258 196 43.6692C196 43.8723 195.677 44.38 195.032 45.1925L193.821 46.7158C192.772 48.03 191.913 49.3741 191.244 50.748C190.587 52.122 190.074 53.4959 189.705 54.8699C189.602 55.2641 189.55 55.6345 189.55 55.981C189.55 56.889 189.907 57.343 190.622 57.343C190.875 57.343 191.135 57.2653 191.4 57.11C191.665 56.9666 191.809 56.895 191.832 56.895C191.971 56.895 192.04 56.9965 192.04 57.1996C192.04 57.3788 191.976 57.5162 191.85 57.6118C191.458 57.8508 191.037 57.9702 190.587 57.9702Z" fill="black" fill-opacity="0.2"/>
</svg>
