<svg width="144" height="144" viewBox="0 0 144 144" fill="none" xmlns="http://www.w3.org/2000/svg">
<g clip-path="url(#clip0_295_8646)">
<path d="M144 72C144 97.1407 131.117 119.267 111.594 132.145C100.237 139.641 86.63 144 72 144C71.1581 144 70.3206 143.986 69.4832 143.955C55.2063 143.466 41.9842 138.822 30.9891 131.185C12.2625 118.185 0 96.5251 0 72C0 32.2384 32.2384 0 72 0C111.762 0 144 32.2384 144 72Z" fill="#BF9D7D"/>
<path d="M144 72C144 97.1407 131.117 119.267 111.594 132.145C100.237 139.641 86.63 144 72 144C71.1581 144 70.3206 143.986 69.4832 143.955C55.2063 143.466 41.9842 138.822 30.9891 131.185C12.2625 118.185 0 96.5251 0 72C0 32.2384 32.2384 0 72 0C111.762 0 144 32.2384 144 72Z" fill="black" fill-opacity="0.2"/>
<path d="M57.4379 56.1071C55.7133 53.7533 24.9506 59.063 23.1852 53.5451C21.8906 49.5074 21.2297 33.9766 22.2437 31.5911C19.1792 38.802 16.8299 46.4429 15.0102 54.1788C14.7431 55.324 14.4806 56.5779 14.2859 57.8725C13.8876 60.5251 13.7699 63.3361 14.4806 65.7171C15.6167 69.533 18.4957 70.0943 21.8725 70.5153C31.8084 71.7646 41.6763 73.6477 51.4221 76.1554C51.2999 74.4036 51.3406 72.6428 51.5307 70.9C52.1237 65.4455 54.1878 60.1901 57.4379 56.1026V56.1071Z" fill="#29609B"/>
<path d="M128.392 57.4334C128.198 56.1388 127.94 54.885 127.673 53.7397C125.862 45.9993 123.522 38.3584 120.466 31.143C121.476 33.5285 120.801 49.0592 119.502 53.097C117.728 58.6103 86.974 53.269 85.2448 55.6228C88.4904 59.7148 90.55 64.9747 91.1384 70.4293C91.324 72.172 91.3648 73.9329 91.2425 75.6847C100.993 73.186 110.865 71.312 120.801 70.0762C124.178 69.6552 127.057 69.0985 128.198 65.2825C128.908 62.9016 128.795 60.086 128.401 57.438L128.392 57.4334Z" fill="#5494CD"/>
<path d="M114.559 89.0879C116.705 98.7703 117.447 108.901 116.754 118.963C115.46 118.221 114.165 117.483 112.866 116.741C112.794 121.888 112.368 127.043 111.594 132.145C100.237 139.641 86.63 144 72 144C71.1581 144 70.3206 143.986 69.4832 143.955V47.9955C69.4832 47.9955 75.1279 40.6217 87.0102 41.5903C85.2403 42.4323 81.5647 44.8269 80.5643 47.5383C85.9781 46.0581 91.1339 47.2622 94.8955 49.9193C92.9129 50.3403 91.3512 51.8114 91.2335 52.771C94.1441 53.3731 97.0004 54.2648 99.7616 55.4191C104.08 57.2207 108.172 59.6786 111.888 62.7114C109.879 62.7884 107.869 62.8653 105.859 62.9423C108.865 64.9566 111.422 67.7812 113.287 71.1309C113.491 71.4885 113.681 71.8552 113.866 72.2263C112.834 71.7329 111.644 71.6515 110.544 72C115.374 77.4455 118.724 84.5568 120.072 92.2112C118.235 91.1701 116.397 90.129 114.559 89.0879Z" fill="#08BED0"/>
<path d="M69.4832 47.9955V143.955C55.2063 143.466 41.9842 138.822 30.9891 131.185C29.3188 124.957 28.3727 118.452 28.1916 111.888C28.1781 111.395 27.6077 111.237 27.3814 111.667C27.0736 112.255 26.7024 112.807 26.2769 113.296C25.9917 113.627 25.5028 113.427 25.5074 112.975C25.5662 105.696 26.7612 98.39 29.0155 91.487C29.1694 91.0162 28.7077 90.6224 28.3501 90.9212C26.2859 92.605 24.3712 94.5288 22.642 96.6473C22.3252 97.0366 21.7774 96.7061 21.8951 96.1992C23.6605 88.3953 26.7295 80.9219 30.894 74.3086C31.1566 73.8921 30.7763 73.367 30.3644 73.5752L26.6979 75.4538C26.2678 75.6756 25.8876 75.1052 26.1818 74.6888C26.9513 73.5888 27.748 72.5115 28.5764 71.4613C32.673 66.2422 37.444 61.6929 42.6767 58.0219C41.9887 58.5424 37.0547 56.8993 35.6243 56.1479C35.4794 56.0709 35.3708 56.003 35.3074 55.9487C40.2233 53.7035 47.5564 50.9604 52.7937 50.7838C51.5308 47.0766 48.2897 44.1388 42.1698 43.4462C57.438 39.5398 66.2241 46.5605 69.4832 47.9955Z" fill="#0691AE"/>
<path d="M71.0494 117.538C86.7967 117.538 99.5624 104.249 99.5624 87.8567C99.5624 71.4644 86.7967 58.1758 71.0494 58.1758C55.3021 58.1758 42.5364 71.4644 42.5364 87.8567C42.5364 104.249 55.3021 117.538 71.0494 117.538Z" fill="white"/>
<path d="M69.4832 58.221C54.473 59.0675 42.55 72.0045 42.5409 87.8431C42.5318 103.695 54.4594 116.646 69.4832 117.492V58.221Z" fill="#E0E0E0"/>
<path d="M69.8816 70.7009C65.9525 70.986 62.123 72.7152 59.2622 75.8567C53.3187 82.3659 53.7805 92.4647 60.2942 98.4036C62.9287 100.807 66.1471 102.161 69.4379 102.496C72.4708 91.7043 73.0502 80.6141 69.8816 70.7009Z" fill="#02A486"/>
<path d="M82.8412 97.3716C88.7846 90.8623 88.3229 80.7635 81.8091 74.8246C78.4368 71.7465 74.1049 70.3931 69.8815 70.7009C73.0456 80.6096 72.4707 91.7043 69.4379 102.496C74.2904 102.985 79.3014 101.255 82.8412 97.3761V97.3716Z" fill="#04BF8A"/>
<path d="M70.0898 96.077C72.9822 96.3667 75.9698 95.3391 78.0792 93.026C81.619 89.1467 81.3474 83.1309 77.4636 79.5866C75.4538 77.7533 72.8691 76.9431 70.3568 77.1286C68.0166 77.3007 65.7352 78.3282 64.0286 80.2022C60.4888 84.0815 60.7604 90.0973 64.6443 93.6417C66.215 95.0721 68.1343 95.8823 70.0943 96.077H70.0898Z" fill="#263238"/>
</g>
<defs>
<clipPath id="clip0_295_8646">
<rect width="144" height="144" fill="white"/>
</clipPath>
</defs>
</svg>
